<svg version="1.1" id="Layer_1" xmlns="http://www.w3.org/2000/svg" xmlns:xlink="http://www.w3.org/1999/xlink" x="0px" y="0px"
	 width="100%" viewBox="0 0 2976 614" enable-background="new 0 0 2976 614" xml:space="preserve">

<path fill="#020202" opacity="1.000000" stroke="none" 
	d="
M2677.466064,615.000000 
	C2661.043945,610.927002 2651.279785,600.553101 2647.198486,584.895081 
	C2643.364014,570.184387 2643.294189,555.306152 2646.674316,540.448242 
	C2648.668457,531.682800 2652.277344,523.736206 2658.923340,517.499390 
	C2669.663330,507.420502 2682.468750,505.760406 2696.099854,509.395081 
	C2703.305176,511.316254 2707.002197,517.138062 2709.049072,524.036743 
	C2709.476318,525.476868 2709.942871,526.905396 2710.391357,528.339233 
	C2710.961670,528.257874 2711.532227,528.176514 2712.102783,528.095154 
	C2712.102783,507.719513 2712.102783,487.343872 2712.102783,466.736328 
	C2721.444824,466.736328 2729.874268,466.736328 2738.654053,466.736328 
	C2738.654053,515.427917 2738.654053,564.108215 2738.654053,613.074951 
	C2731.428223,613.428528 2724.177246,613.783325 2716.502686,614.158875 
	C2715.205078,607.529907 2713.950439,601.120178 2712.695557,594.710449 
	C2712.270996,594.588989 2711.846436,594.467468 2711.421875,594.345947 
	C2710.792725,595.699402 2709.974854,596.998230 2709.565430,598.415161 
	C2707.014893,607.241394 2701.335449,612.597839 2692.136719,614.652832 
	C2687.310791,615.000000 2682.621338,615.000000 2677.466064,615.000000 
M2712.390625,566.947815 
	C2712.243164,561.801819 2712.469971,556.611694 2711.870850,551.518799 
	C2710.546631,540.259583 2704.387695,533.671814 2695.118164,532.944275 
	C2683.793701,532.055542 2677.170898,536.854614 2673.849854,548.677917 
	C2671.368652,557.511780 2671.471680,566.462280 2673.958740,575.259033 
	C2677.042236,586.165466 2683.702148,590.653625 2695.050781,589.958130 
	C2704.482910,589.380188 2709.790283,584.106323 2711.720703,573.290527 
	C2712.041016,571.496704 2712.083496,569.653442 2712.390625,566.947815 
z"/>
<path fill="#020202" opacity="1.000000" stroke="none" 
	d="
M2325.468750,615.000000 
	C2317.798584,613.356506 2310.583008,611.771545 2303.403809,610.036560 
	C2301.019043,609.460205 2298.727539,608.498474 2296.067383,607.603149 
	C2297.222412,598.964783 2298.357666,590.474976 2299.473877,582.126160 
	C2309.109619,584.648804 2318.243408,587.917175 2327.650146,589.232788 
	C2335.552734,590.337891 2343.836426,589.719055 2351.831299,588.809631 
	C2357.044434,588.216675 2360.719971,584.342529 2361.772705,578.862854 
	C2362.892334,573.037720 2360.930420,567.990356 2355.951660,565.030090 
	C2348.982178,560.886108 2341.357422,557.843750 2334.390625,553.695679 
	C2326.727295,549.132690 2318.755127,544.658508 2312.230225,538.706299 
	C2300.219482,527.749146 2297.010986,513.472290 2301.564209,498.036011 
	C2306.035645,482.877838 2317.850342,475.907074 2332.602783,473.526520 
	C2354.114990,470.055176 2373.540771,474.574524 2390.361816,489.866241 
	C2384.485596,496.648254 2378.748047,503.270081 2373.013428,509.888580 
	C2368.530273,506.815613 2364.343506,503.629486 2359.856689,500.944672 
	C2353.149658,496.931427 2345.866211,495.803589 2338.238770,497.907410 
	C2327.670410,500.822266 2324.113281,512.201294 2331.603760,520.210815 
	C2334.594727,523.408875 2338.577148,525.806335 2342.400879,528.074524 
	C2352.105225,533.830872 2362.361084,538.738831 2371.674072,545.051270 
	C2381.757568,551.885742 2388.744385,561.379211 2389.834717,574.118408 
	C2391.489258,593.441833 2379.705566,608.401550 2359.321533,612.932434 
	C2356.408936,613.579834 2353.419434,613.880981 2350.232910,614.671204 
	C2341.979248,615.000000 2333.958252,615.000000 2325.468750,615.000000 
z"/>
<path fill="#020202" opacity="1.000000" stroke="none" 
	d="
M2920.468018,615.000000 
	C2915.714600,613.430054 2911.281006,612.173706 2907.171875,610.230957 
	C2895.202637,604.572205 2888.531738,594.460022 2885.277832,582.099792 
	C2881.662598,568.367126 2881.597168,554.388855 2885.278809,540.671204 
	C2890.051514,522.888550 2901.288818,511.245148 2919.885254,508.514862 
	C2937.043457,505.995728 2953.187500,508.355927 2965.205322,522.740540 
	C2972.394043,531.345093 2975.191895,541.689880 2976.640625,552.806763 
	C2977.000000,558.688049 2977.000000,564.376038 2976.635254,570.693848 
	C2975.820557,573.939331 2975.509521,576.588257 2974.897461,579.165588 
	C2970.794922,596.440247 2961.373535,608.882568 2943.445801,613.521423 
	C2941.625000,613.992615 2939.814941,614.506104 2938.000000,615.000000 
	C2932.312012,615.000000 2926.624023,615.000000 2920.468018,615.000000 
M2926.079346,533.033142 
	C2919.626953,534.452576 2915.587891,538.712280 2913.541260,544.653503 
	C2909.697754,555.810791 2909.579590,567.146545 2913.652588,578.271484 
	C2916.611328,586.351562 2922.340576,590.133789 2930.246826,589.999023 
	C2937.658936,589.872681 2943.277832,585.736450 2946.015381,577.806213 
	C2949.581055,567.478394 2949.625000,556.913086 2946.586426,546.494202 
	C2943.628906,536.353394 2937.668457,532.499695 2926.079346,533.033142 
z"/>
<path fill="#020202" opacity="1.000000" stroke="none" 
	d="
M2555.464600,615.000000 
	C2554.511475,614.643005 2554.073975,614.125305 2553.527100,613.952515 
	C2540.903076,609.964111 2535.085205,600.499634 2533.074707,588.185120 
	C2532.381592,583.940552 2532.214355,579.573853 2532.197510,575.261414 
	C2532.113525,553.615112 2532.158936,531.968323 2532.158936,509.904419 
	C2541.027832,509.904419 2549.716797,509.904419 2558.841064,509.904419 
	C2558.841064,514.300659 2558.839600,518.589905 2558.841797,522.879150 
	C2558.849609,539.868225 2558.760498,556.858154 2558.917725,573.845825 
	C2558.976318,580.164795 2561.114746,585.873901 2567.254395,588.653992 
	C2573.071777,591.287964 2579.400879,591.050476 2584.133301,586.667603 
	C2587.225098,583.804016 2589.739014,579.501160 2590.758057,575.406494 
	C2592.265625,569.350830 2592.639893,562.914429 2592.744385,556.627747 
	C2593.000977,541.153992 2592.828369,525.673157 2592.828369,509.841583 
	C2601.616455,509.841583 2610.152100,509.841583 2618.938965,509.841583 
	C2618.938965,536.263306 2618.938965,562.551636 2618.938965,589.283447 
	C2622.830322,589.889404 2626.600098,590.290039 2630.261719,591.151428 
	C2631.485596,591.439270 2633.318848,592.864929 2633.362305,593.838013 
	C2633.643311,600.127686 2633.506104,606.435852 2633.506104,613.367004 
	C2620.343506,613.367004 2607.592285,613.367004 2594.417480,613.367004 
	C2593.930908,607.006958 2593.415039,600.264526 2592.899170,593.522095 
	C2592.518799,593.246216 2592.138428,592.970337 2591.758057,592.694458 
	C2590.818115,593.999207 2589.510498,595.174255 2588.997314,596.629578 
	C2585.647705,606.129028 2579.612793,612.537781 2569.185547,614.674561 
	C2564.643066,615.000000 2560.286133,615.000000 2555.464600,615.000000 
z"/>
<path fill="#030303" opacity="1.000000" stroke="none" 
	d="
M2470.468750,615.000000 
	C2467.343750,614.323425 2464.696289,613.608643 2462.029541,612.976379 
	C2444.339111,608.781738 2434.147949,597.695618 2433.151611,579.505066 
	C2432.333740,564.574280 2432.984863,549.563110 2432.984863,534.125122 
	C2424.171143,534.125122 2416.260010,534.125122 2407.919434,534.125122 
	C2407.919434,525.819885 2407.919434,517.962646 2407.919434,509.642822 
	C2415.797607,509.642822 2423.713135,509.642822 2432.020020,509.642822 
	C2432.020020,499.094055 2432.020020,488.989441 2432.020020,478.523346 
	C2440.973633,478.523346 2449.542725,478.523346 2458.701660,478.523346 
	C2458.701660,488.623016 2458.701660,498.847809 2458.701660,509.519867 
	C2474.184570,509.519867 2489.090820,509.519867 2504.251709,509.519867 
	C2504.251709,517.731995 2504.251709,525.482849 2504.251709,533.676270 
	C2489.208740,533.676270 2474.309326,533.676270 2459.228027,533.676270 
	C2459.228027,547.370361 2458.422363,560.691284 2459.482666,573.862000 
	C2460.333252,584.430176 2468.259277,589.802185 2480.687500,589.901001 
	C2488.961670,589.966919 2497.242920,589.175842 2506.180176,588.735840 
	C2506.912842,596.374695 2507.681396,604.389038 2508.494385,612.867920 
	C2504.524658,613.360352 2500.946533,613.804199 2497.184082,614.624023 
	C2488.312500,615.000000 2479.625000,615.000000 2470.468750,615.000000 
z"/>
<path fill="#575757" opacity="1.000000" stroke="none" 
	d="
M1468.531250,1.000000 
	C1468.999390,1.479158 1468.998901,1.958316 1468.518555,2.722503 
	C1466.451904,4.038727 1464.467773,4.755246 1463.354248,6.161396 
	C1460.263428,10.064732 1456.468384,11.152389 1451.601196,11.016823 
	C1440.459351,10.706499 1429.303101,10.923144 1418.152710,10.918001 
	C1360.406738,10.891367 1302.660645,10.862283 1244.959229,10.475825 
	C1243.335938,7.078385 1241.667969,4.039172 1240.000000,0.999980 
	C1316.020874,1.000000 1392.041870,1.000000 1468.531250,1.000000 
z"/>
<path fill="#575757" opacity="1.000000" stroke="none" 
	d="
M168.531342,1.000000 
	C169.010132,1.189854 169.020264,1.379709 168.637222,1.970514 
	C166.520828,4.171600 164.982071,6.215347 163.020508,7.700750 
	C161.198090,9.080781 158.927444,10.772609 156.849472,10.778889 
	C108.538246,10.924869 60.226398,10.859715 11.959683,10.478123 
	C10.003138,7.081772 8.001569,4.040886 6.000000,1.000000 
	C60.020893,1.000000 114.041786,1.000000 168.531342,1.000000 
z"/>
<path fill="#5E5E5E" opacity="1.000000" stroke="none" 
	d="
M255.000000,0.999998 
	C307.020905,1.000000 359.041779,1.000000 411.480530,1.341220 
	C409.576691,4.682716 407.255005,7.682992 404.474304,10.756617 
	C389.054565,10.847869 374.093750,10.891596 359.133026,10.878415 
	C325.723938,10.848981 292.314819,10.791161 258.917847,10.392122 
	C257.619995,7.026226 256.309998,4.013111 255.000000,0.999998 
z"/>

<path fill="#777777" opacity="1.000000" stroke="none" 
	d="
M1.000000,429.000000 
	C1.000000,288.309998 1.000000,147.620010 1.339332,6.470733 
	C2.421797,6.374247 3.164930,6.737052 3.523146,7.174018 
	C2.765687,9.262497 2.067801,11.276691 2.067036,13.291151 
	C2.015604,148.767838 2.018970,284.244537 2.028250,419.721252 
	C2.028466,422.882172 2.149695,426.043091 2.213000,429.224609 
	C2.211521,429.245178 2.245432,429.273315 1.938379,429.185364 
	C1.420884,429.064941 1.210442,429.032471 1.000000,429.000000 
z"/>
<path fill="#8D8D8D" opacity="1.000000" stroke="none" 
	d="
M254.571533,0.999998 
	C256.309998,4.013111 257.619995,7.026226 258.634979,10.524600 
	C257.844360,11.659562 257.348785,12.309264 256.515137,12.929806 
	C253.511002,10.948269 250.844955,8.995892 248.178925,7.043513 
	C248.436142,5.288191 248.693359,3.532870 248.975296,1.388775 
	C250.714355,1.000000 252.428711,1.000000 254.571533,0.999998 
z"/>
<path fill="#8D8D8D" opacity="1.000000" stroke="none" 
	d="
M1239.583496,0.999980 
	C1241.667969,4.039172 1243.335938,7.078385 1244.714355,10.582497 
	C1244.223755,11.334668 1244.022827,11.621940 1243.469604,11.946579 
	C1240.429688,10.331681 1237.742065,8.679416 1235.054443,7.027154 
	C1235.026245,5.305784 1234.998047,3.584409 1234.984985,1.431517 
	C1236.388916,1.000000 1237.777832,1.000000 1239.583496,0.999980 
z"/>
<path fill="#8D8D8D" opacity="1.000000" stroke="none" 
	d="
M3.908062,7.099858 
	C3.164930,6.737052 2.421797,6.374247 1.339332,6.005721 
	C1.000000,4.421039 1.000000,2.842079 1.000000,1.000000 
	C2.329434,1.000000 3.664755,1.000000 5.500038,1.000000 
	C8.001569,4.040886 10.003138,7.081772 11.704540,10.580531 
	C11.172978,11.313510 10.941582,11.588615 10.364309,11.894533 
	C7.981642,10.316851 5.944852,8.708354 3.908062,7.099858 
z"/>
<path fill="#474747" opacity="1.000000" stroke="none" 
	d="
M404.933319,10.683266 
	C407.255005,7.682992 409.576691,4.682716 411.949188,1.341220 
	C413.388885,1.000000 414.777802,1.000000 416.583344,1.000000 
	C416.887299,1.495222 416.774628,1.990443 416.166748,2.784111 
	C414.027954,4.311976 412.410034,5.577823 410.733826,6.761173 
	C408.827484,8.106992 406.869080,9.379110 404.933319,10.683266 
z"/>
<path fill="#5A5A5A" opacity="1.000000" stroke="none" 
	d="
M1.000000,429.400146 
	C1.210442,429.032471 1.420884,429.064941 1.952246,429.542633 
	C2.206039,430.945740 2.138911,431.903656 2.071784,432.861542 
	C1.896958,432.914032 1.722131,432.966553 1.273652,433.009552 
	C1.000000,431.933441 1.000000,430.866852 1.000000,429.400146 
z"/>
<path fill="#000000" opacity="1.000000" stroke="none" 
	d="
M2.532382,432.922333 
	C2.138911,431.903656 2.206039,430.945740 2.259299,429.630585 
	C2.245432,429.273315 2.211521,429.245178 2.547048,429.159943 
	C9.047246,426.007111 11.087829,421.342102 11.075068,414.217529 
	C10.839928,282.924683 10.904153,151.631271 10.894909,20.337986 
	C10.894710,17.513227 10.774443,14.688476 10.710186,11.863721 
	C10.941582,11.588615 11.172978,11.313510 11.659517,10.935996 
	C60.226398,10.859715 108.538246,10.924869 156.849472,10.778889 
	C158.927444,10.772609 161.198090,9.080781 163.020508,7.700750 
	C164.982071,6.215347 166.520828,4.171600 168.537262,2.237603 
	C174.884445,37.513657 180.926834,72.925560 186.996429,108.332802 
	C191.210907,132.918243 195.772293,157.449570 199.571899,182.098602 
	C201.571518,195.070587 202.349930,208.235977 203.534424,221.327194 
	C205.094040,238.564072 206.510712,255.813889 207.592758,273.582642 
	C206.246368,275.827454 205.296036,277.547791 204.345718,279.268097 
	C205.607712,279.792725 206.869705,280.317352 208.485474,280.922241 
	C210.589066,280.511536 212.338898,280.020569 214.437653,279.404388 
	C215.874451,277.533234 216.962372,275.787323 218.422287,273.899261 
	C219.152832,272.244446 219.704208,270.748749 219.839127,269.216400 
	C220.853912,257.690460 221.887299,246.164490 222.715927,234.624252 
	C223.497330,223.741959 224.036148,212.842239 224.799805,201.552902 
	C227.260468,187.607513 229.620667,174.062469 231.941833,160.510712 
	C236.894409,131.595779 241.862946,102.683487 246.755020,73.758293 
	C250.180969,53.501980 253.491257,33.226109 256.853210,12.958969 
	C257.348785,12.309264 257.844360,11.659562 258.622864,10.877382 
	C292.314819,10.791161 325.723938,10.848981 359.133026,10.878415 
	C374.093750,10.891596 389.054565,10.847869 404.474304,10.756616 
	C406.869080,9.379110 408.827484,8.106992 410.733826,6.761173 
	C412.410034,5.577823 414.027954,4.311976 415.992249,3.124429 
	C416.377350,4.660056 416.498108,6.153807 416.498199,7.647566 
	C416.506866,147.716049 416.506317,287.784546 416.506348,427.853027 
	C416.506348,429.335022 416.506348,430.817017 416.506348,432.691650 
	C415.042816,432.805603 413.795135,432.987000 412.547424,432.987610 
	C381.402588,433.003113 350.257660,433.027710 319.113251,432.910889 
	C317.655426,432.905457 316.202484,431.609009 315.157288,430.352112 
	C321.492218,426.371155 324.111725,421.758423 324.075256,414.414368 
	C323.771606,353.286774 323.857422,292.156952 323.957184,231.028015 
	C323.970703,222.739899 324.728271,214.453659 325.114685,206.165314 
	C325.631195,195.085266 326.121674,184.004013 326.718903,172.544083 
	C327.078613,170.140610 327.342743,168.116318 327.717468,165.630127 
	C327.854797,146.958710 327.916870,128.749084 327.852295,110.539894 
	C327.846008,108.767235 327.058289,106.997345 326.680725,105.423790 
	C323.297180,106.423088 320.673187,107.198051 318.049225,107.973022 
	C317.943054,107.316055 317.836853,106.659088 317.730652,106.002121 
	C303.875061,215.889404 279.941040,323.985168 260.044922,432.999939 
	C244.516602,432.999939 229.379150,433.000000 214.241699,432.999939 
	C196.924591,432.999817 179.607056,433.051575 162.291107,432.909424 
	C160.758621,432.896820 159.236526,431.619171 158.001419,430.401123 
	C163.814346,425.976837 166.372208,421.379333 164.209122,414.164001 
	C162.079300,407.059692 161.321121,399.547241 159.912064,392.223297 
	C152.020996,351.207520 144.145401,310.188721 136.199707,269.183533 
	C132.887878,252.092117 128.952087,235.107590 126.143974,217.936432 
	C123.180634,199.816055 121.324448,181.517105 118.798477,163.321991 
	C116.295448,145.292145 113.577629,127.291939 110.892746,109.287865 
	C110.689613,107.925789 109.997223,106.636673 109.595421,105.493355 
	C106.410088,106.792389 103.733315,107.884018 101.056541,108.975647 
	C100.955498,108.488235 100.854462,108.000816 100.753418,107.513405 
	C100.351212,107.522377 99.949013,107.531349 99.546806,107.540321 
	C100.140854,134.309738 100.773865,161.078369 101.318069,187.848801 
	C101.869675,214.983536 102.529732,242.118240 102.780678,269.256317 
	C103.031845,296.419189 102.835831,323.586212 102.835831,350.751404 
	C102.835831,377.907623 102.835831,405.063812 102.835831,432.983124 
	C69.467850,432.983124 36.230415,432.983124 2.532382,432.922333 
z"/>
<path fill="#000000" opacity="1.000000" stroke="none" 
	d="
M2086.964355,448.941376 
	C2087.642578,449.987061 2088.834229,450.995728 2088.912842,452.084625 
	C2089.321533,457.752838 2089.446777,463.441528 2089.939941,469.766663 
	C2089.143066,472.590576 2088.077148,474.770874 2086.424561,478.151489 
	C2102.578369,479.481995 2117.881592,479.016418 2133.529541,478.556396 
	C2139.456299,477.945068 2142.123535,474.629761 2142.640625,468.742249 
	C2142.832275,458.631439 2143.084473,448.973022 2142.847656,439.326630 
	C2142.611084,429.704010 2144.001709,419.961731 2141.848877,410.069702 
	C2138.627441,411.315491 2136.186523,412.259460 2133.745605,413.203430 
	C2132.697266,413.401886 2131.312500,413.239899 2130.653564,413.855316 
	C2124.945312,419.186951 2119.502441,424.810425 2113.668701,429.996063 
	C2111.906738,431.562225 2109.174072,432.855743 2106.875488,432.873566 
	C2081.090088,433.073700 2055.302246,433.054321 2029.516235,432.895325 
	C2027.487183,432.882812 2024.948975,431.908356 2023.523682,430.496399 
	C2009.936890,417.037964 1996.539307,403.388550 1983.145508,389.212097 
	C1985.855347,386.026703 1991.064087,386.786865 1991.044312,380.569763 
	C1990.809570,306.678040 1990.884033,232.785355 1991.053711,158.610535 
	C2003.182861,146.278366 2015.135864,134.228622 2027.379395,122.057587 
	C2028.370728,121.509415 2029.071289,121.082527 2030.241943,120.771217 
	C2053.145020,120.894020 2075.585449,120.577255 2098.006348,121.095688 
	C2105.217529,121.262413 2110.158936,119.949524 2112.013428,112.468880 
	C2118.152588,118.528915 2124.291748,124.588943 2130.723633,131.274750 
	C2130.392822,134.689163 2129.769531,137.477798 2129.134521,140.317429 
	C2136.032715,143.744141 2141.577881,140.439896 2142.688965,131.656433 
	C2142.778076,128.450439 2142.747314,125.692253 2142.814209,122.625702 
	C2143.692627,121.685059 2144.473389,121.052765 2145.622314,120.561050 
	C2172.233643,120.762054 2198.479248,120.634064 2224.718018,121.007729 
	C2231.786377,121.108398 2235.057617,117.153519 2237.952148,111.928040 
	C2238.669678,112.341278 2239.913086,112.660629 2240.006836,113.185318 
	C2240.295654,114.802887 2240.164307,116.498802 2240.164307,118.164299 
	C2240.167480,242.282990 2240.153564,366.401672 2240.234863,490.520325 
	C2240.237305,494.093323 2239.385498,496.682648 2236.738525,499.243530 
	C2223.691406,511.866394 2210.913818,524.767822 2197.867676,537.391785 
	C2196.421875,538.790710 2193.874023,539.731750 2191.834473,539.736572 
	C2138.688477,539.862427 2085.542480,539.847473 2032.396484,539.784302 
	C2030.712646,539.782288 2029.029541,539.013672 2027.181152,537.867554 
	C2024.305786,534.435974 2021.595459,531.739197 2018.885010,529.042419 
	C2018.294556,528.584167 2017.704102,528.125916 2017.049072,526.979492 
	C2017.742920,524.233276 2018.660889,522.215881 2019.200684,520.101929 
	C2019.529053,518.816223 2019.416016,517.353760 2019.160156,516.036987 
	C2019.109131,515.773560 2017.302368,515.423218 2016.663696,515.771057 
	C2012.308960,518.142822 2008.879761,517.104736 2005.819702,513.432739 
	C2005.187012,512.673462 2003.845459,512.505005 2002.830566,512.064209 
	C2001.932739,511.274323 2001.035034,510.484375 2000.060791,508.993073 
	C2000.519653,506.496460 2001.296265,504.731232 2001.524780,502.897675 
	C2001.767822,500.949097 2001.928833,498.783966 2001.308960,496.996521 
	C2000.770752,495.444397 1999.092163,494.287689 1997.890381,492.490845 
	C1997.820068,480.956726 1997.777100,469.887970 1997.840820,458.573883 
	C1998.237671,458.132599 1998.527832,457.936646 1999.288940,457.837952 
	C2024.409058,457.926178 2049.061035,457.715424 2073.705811,458.035309 
	C2080.780518,458.127106 2084.087402,454.209839 2086.964355,448.941376 
M2133.879395,356.586761 
	C2139.453857,355.936005 2142.134277,352.635437 2142.789062,346.281647 
	C2142.826904,299.005371 2142.866699,251.729111 2142.901123,204.452835 
	C2142.908691,194.162888 2142.899902,194.162888 2132.805664,196.970062 
	C2118.553467,196.970062 2104.301025,196.970062 2089.832764,196.970062 
	C2089.832764,198.435043 2089.833008,199.414490 2089.833008,200.393936 
	C2089.833008,248.211411 2089.830078,296.028870 2089.846191,343.846344 
	C2089.846680,345.167480 2090.046875,346.488525 2090.128662,348.570862 
	C2089.079102,350.736847 2088.029297,352.902832 2086.417725,356.228790 
	C2102.612793,357.405273 2117.899658,357.059662 2133.879395,356.586761 
z"/>
<path fill="#000000" opacity="1.000000" stroke="none" 
	d="
M1703.129028,112.875214 
	C1716.955200,125.844185 1730.826782,138.765625 1744.529175,151.864136 
	C1745.749878,153.031006 1746.418945,155.348907 1746.421143,157.133331 
	C1746.513062,233.238876 1746.520142,309.344543 1746.391113,385.449951 
	C1746.387695,387.467896 1745.259644,389.974579 1743.820435,391.422852 
	C1730.678589,404.646820 1717.398682,417.735413 1704.004761,430.704163 
	C1702.658447,432.007812 1700.295166,432.902191 1698.401611,432.906219 
	C1643.945557,433.022003 1589.489136,433.017365 1535.032959,432.920197 
	C1533.275146,432.917084 1531.049194,432.221161 1529.834595,431.035614 
	C1515.777588,417.315582 1501.873901,403.438599 1488.094482,389.214752 
	C1494.940186,386.809113 1496.079468,382.165894 1496.056396,375.605499 
	C1495.810303,305.676270 1495.905762,235.745819 1495.892090,165.815704 
	C1495.891724,163.826080 1495.722290,161.836472 1495.718384,159.537766 
	C1496.234131,158.504990 1496.663086,157.781326 1497.409912,156.952759 
	C1508.848633,145.973099 1519.969849,135.098343 1531.391357,124.090408 
	C1533.089600,122.924110 1534.487549,121.890976 1536.357422,120.922379 
	C1587.293457,120.961037 1637.758179,120.845428 1688.221680,121.017731 
	C1694.869385,121.040428 1700.788818,121.180962 1702.737793,113.171722 
	C1702.767700,113.048439 1702.994141,112.973000 1703.129028,112.875214 
M1641.735962,354.800568 
	C1645.373535,353.471283 1646.817749,350.618286 1647.727295,346.394012 
	C1647.789062,346.068298 1647.904541,345.742584 1647.904663,345.416870 
	C1647.912598,296.565155 1647.924072,247.713409 1647.866699,198.861755 
	C1647.864502,197.022934 1647.189941,195.184906 1646.739990,192.894897 
	C1643.392334,194.465622 1640.752563,195.704239 1637.676758,196.172028 
	C1623.598145,196.172028 1609.519531,196.172028 1595.319824,196.172028 
	C1595.250000,197.250854 1595.172119,197.892838 1595.171997,198.534805 
	C1595.165771,246.492386 1595.159302,294.449951 1595.199341,342.407501 
	C1595.200317,343.609100 1595.717041,344.810211 1596.208496,346.748108 
	C1595.570923,348.065125 1595.017334,349.431305 1594.279419,350.689423 
	C1592.456421,353.798126 1592.829224,355.868256 1596.862061,355.861237 
	C1610.277344,355.837830 1623.692505,355.705597 1637.787720,355.748413 
	C1638.874512,355.458313 1639.961426,355.168243 1641.735962,354.800568 
z"/>
<path fill="#000000" opacity="1.000000" stroke="none" 
	d="
M1091.680908,411.711914 
	C1088.375366,414.631500 1084.495239,417.113342 1081.873535,420.554077 
	C1074.486694,430.248352 1065.646484,434.030853 1052.997925,433.347290 
	C1030.241577,432.117523 1007.370422,432.920563 984.548706,433.084442 
	C981.067993,433.109436 978.756836,432.013611 976.353760,429.581604 
	C964.415466,417.499878 952.278076,405.614990 940.254150,393.036255 
	C941.060364,391.810211 941.734741,390.923981 942.600830,390.655060 
	C946.969727,389.298492 948.026978,386.426025 948.002930,381.985962 
	C947.820801,348.299042 947.907776,314.610687 948.039612,280.613586 
	C961.076965,267.161346 973.985474,254.018326 987.365967,240.934937 
	C1015.946716,240.963974 1044.055542,240.949402 1072.164307,240.889938 
	C1078.142334,240.877289 1084.120117,240.701233 1090.418945,240.670868 
	C1092.160034,240.368988 1093.579956,239.996719 1095.331787,239.479965 
	C1097.090088,237.557159 1098.516846,235.778839 1100.243652,233.709518 
	C1100.961914,219.066177 1101.520508,204.708557 1100.146240,189.863174 
	C1096.472168,191.383102 1094.046875,192.386414 1091.621582,193.389725 
	C1076.993164,193.389725 1062.364746,193.389725 1047.252686,193.389725 
	C1047.252686,201.095566 1047.252686,209.153534 1047.252686,217.459213 
	C1045.697754,217.614899 1044.594727,217.821243 1043.491577,217.821854 
	C1012.032043,217.838943 980.572449,217.846664 949.112976,217.795807 
	C947.786438,217.793671 946.460754,217.215622 945.444458,216.370499 
	C949.468079,212.318619 954.935852,210.179092 954.916077,203.774384 
	C954.869995,188.814285 954.888428,173.854004 955.055908,158.610779 
	C966.518372,146.624969 977.805603,134.922165 989.380798,123.105522 
	C990.415161,122.290970 991.161621,121.590271 992.379700,120.944336 
	C1044.611450,120.968864 1096.371704,120.939201 1148.131958,120.907768 
	C1156.075806,120.902939 1156.734375,120.299248 1157.967651,111.947495 
	C1164.335571,118.190002 1170.795044,124.342598 1177.047119,130.698975 
	C1184.048950,137.817505 1190.931519,145.057587 1197.694824,152.402283 
	C1198.892334,153.702652 1199.904785,155.772995 1199.906494,157.488861 
	C1199.999268,248.952576 1199.973999,340.416412 1199.956787,431.880249 
	C1199.956665,432.035767 1199.893188,432.191254 1199.779419,432.713959 
	C1198.629150,432.803558 1197.368408,432.986969 1196.107666,432.987579 
	C1162.787354,433.003082 1129.467041,433.013397 1096.146851,432.953918 
	C1094.668091,432.951294 1093.190796,432.282959 1092.073120,431.319061 
	C1094.471191,428.747925 1096.562378,426.834503 1098.534668,424.805389 
	C1101.912842,421.329773 1101.953003,412.466492 1098.954224,408.911194 
	C1096.444824,409.877502 1094.062866,410.794678 1091.680908,411.711914 
M1093.873047,363.585510 
	C1099.460327,362.944031 1102.128174,359.626007 1102.795288,353.276672 
	C1102.833130,343.448059 1103.100220,333.613495 1102.843872,323.792542 
	C1102.588379,314.010986 1104.088745,304.098816 1101.884033,294.371124 
	C1098.448364,295.373260 1095.807495,296.143585 1092.576904,296.274902 
	C1076.476440,296.274902 1060.376099,296.274902 1043.997314,296.274902 
	C1043.997314,301.723694 1043.965698,306.702484 1044.003418,311.680756 
	C1044.111816,325.996979 1044.248291,340.312988 1044.216431,355.402710 
	C1043.148682,357.583740 1042.080933,359.764740 1040.287354,363.428406 
	C1058.590576,364.221375 1075.880859,364.119019 1093.873047,363.585510 
z"/>
<path fill="#000000" opacity="1.000000" stroke="none" 
	d="
M710.066162,325.134033 
	C710.654114,326.029266 711.750977,326.922028 711.755310,327.820099 
	C711.854492,348.136292 711.885864,368.453491 711.732361,388.769012 
	C711.720703,390.316986 710.558289,392.167603 709.393799,393.347565 
	C696.994751,405.910736 684.529358,418.409668 671.942993,430.784698 
	C670.702515,432.004395 668.539001,432.906281 666.801819,432.909698 
	C611.347412,433.019440 555.892761,433.011169 500.438202,432.939697 
	C498.945465,432.937775 497.053955,432.467010 496.022064,431.497772 
	C481.592529,417.943878 467.280457,404.264984 453.099792,390.213257 
	C456.616699,387.601135 461.057556,387.233459 461.037048,381.051086 
	C460.790314,306.665070 460.871124,232.278000 461.046234,157.610535 
	C472.515045,145.959686 483.804016,134.589493 495.380859,123.105484 
	C496.415131,122.290977 497.161560,121.590286 498.379608,120.944351 
	C553.277771,120.968872 607.704346,120.939209 662.130920,120.907745 
	C670.075745,120.903152 670.734253,120.299263 671.967590,111.947495 
	C674.225586,113.828873 676.650635,115.544128 678.713684,117.619270 
	C689.988708,128.960068 701.215759,140.349625 712.333740,151.843842 
	C713.573975,153.126114 714.727661,155.173767 714.732483,156.869827 
	C714.854675,199.695297 714.818054,242.521225 714.799255,285.347076 
	C714.799133,285.663116 714.659851,285.979095 714.451111,286.867584 
	C662.489502,293.840485 610.326599,300.840424 558.086426,307.850739 
	C558.086426,321.468140 558.086426,334.620819 558.151367,348.585510 
	C557.150269,351.579895 556.084229,353.762299 555.037231,355.905914 
	C558.745605,358.189514 590.446777,359.133087 603.529297,357.557098 
	C609.025024,357.045441 611.768738,354.114777 612.558594,348.686737 
	C612.778320,344.193054 612.793701,340.054626 612.924072,335.673187 
	C613.329956,335.231262 613.620850,335.032379 614.381836,334.897949 
	C641.242310,334.947601 667.639099,334.603760 694.019348,335.112732 
	C702.239563,335.271332 706.330261,331.038177 710.066162,325.134033 
M563.995300,256.747650 
	C577.032776,255.016266 590.100403,253.481537 603.097229,251.485687 
	C612.042725,250.111984 614.292603,247.540253 614.817871,239.196365 
	C614.609558,222.609818 615.720520,205.975952 614.157288,188.918594 
	C610.555908,190.340347 608.116760,191.303253 605.176575,191.603546 
	C589.616699,191.603546 574.056824,191.603546 558.167480,191.603546 
	C558.167480,210.288223 558.167480,229.028488 558.072021,248.501846 
	C556.751770,250.655396 555.431458,252.808945 553.073364,256.655334 
	C557.373413,256.655334 560.277832,256.655334 563.995300,256.747650 
z"/>
<path fill="#000000" opacity="1.000000" stroke="none" 
	d="
M2495.968018,111.947464 
	C2498.225830,113.828934 2500.650879,115.544281 2502.714111,117.619415 
	C2513.989014,128.960205 2525.215820,140.349869 2536.333740,151.844070 
	C2537.574219,153.126465 2538.727783,155.174088 2538.732666,156.870193 
	C2538.854736,199.695572 2538.818115,242.521423 2538.799316,285.347198 
	C2538.799072,285.663269 2538.659912,285.979248 2538.451172,286.867432 
	C2486.489502,293.840302 2434.326660,300.840179 2382.086426,307.850433 
	C2382.086426,321.467834 2382.086426,334.620422 2382.150879,348.585083 
	C2381.150391,351.579834 2380.084961,353.762573 2379.038330,355.906586 
	C2382.745605,358.189545 2414.445068,359.133240 2427.529785,357.557129 
	C2433.025635,357.045380 2435.768311,354.113953 2436.558594,348.686615 
	C2436.778320,344.192932 2436.793701,340.054657 2436.924316,335.673218 
	C2437.330078,335.231262 2437.621094,335.032379 2438.382080,334.897949 
	C2465.242432,334.947540 2491.638916,334.603668 2518.019287,335.112823 
	C2526.239502,335.271454 2530.329834,331.037445 2534.066406,325.134003 
	C2534.654297,326.029327 2535.751221,326.922150 2535.755615,327.820282 
	C2535.854492,348.136444 2535.885498,368.453644 2535.732178,388.769165 
	C2535.720459,390.317169 2534.558350,392.167755 2533.393799,393.347595 
	C2520.994629,405.910828 2508.529297,418.409882 2495.942871,430.784882 
	C2494.702637,432.004608 2492.539062,432.906281 2490.801758,432.909729 
	C2435.347412,433.019470 2379.892822,433.011169 2324.438232,432.939697 
	C2322.945557,432.937775 2321.054199,432.467041 2320.022217,431.497742 
	C2305.592773,417.943939 2291.280518,404.265106 2277.100098,390.213135 
	C2280.617676,387.601471 2285.057861,387.232422 2285.037354,381.050598 
	C2284.790771,306.664581 2284.871338,232.277512 2285.046631,157.610107 
	C2296.515137,145.959488 2307.803955,134.589478 2319.380859,123.105667 
	C2320.415283,122.291061 2321.162109,121.590240 2322.380371,120.944229 
	C2377.278320,120.968819 2431.704590,120.939178 2486.131104,120.907745 
	C2494.076416,120.903152 2494.732910,120.301216 2495.968018,111.947464 
M2387.994873,256.747742 
	C2401.032471,255.016312 2414.100342,253.481445 2427.097168,251.485611 
	C2436.042969,250.111908 2438.292236,247.540634 2438.818359,239.196396 
	C2438.609131,222.609955 2439.719238,205.976181 2438.157715,188.918533 
	C2434.556152,190.340546 2432.117188,191.303558 2429.176758,191.603867 
	C2413.616943,191.603867 2398.056885,191.603867 2382.167480,191.603867 
	C2382.167480,210.288162 2382.167480,229.028473 2382.072266,248.501877 
	C2380.751709,250.655243 2379.431396,252.808624 2377.072510,256.655334 
	C2381.388184,256.655334 2384.284912,256.655334 2387.994873,256.747742 
z"/>
<path fill="#000000" opacity="1.000000" stroke="none" 
	d="
M1243.821899,11.909220 
	C1244.022827,11.621940 1244.223755,11.334668 1244.669678,10.940725 
	C1302.660645,10.862283 1360.406738,10.891367 1418.152710,10.918001 
	C1429.303101,10.923144 1440.459351,10.706499 1451.601196,11.016823 
	C1456.468384,11.152389 1460.263428,10.064732 1463.354248,6.161396 
	C1464.467773,4.755246 1466.451904,4.038727 1468.394531,3.060003 
	C1468.750122,36.580376 1468.750122,70.048279 1468.750122,103.907623 
	C1428.279663,103.907623 1388.032227,103.907623 1347.002930,103.907623 
	C1347.002930,122.527420 1347.002930,140.766281 1346.979004,159.852173 
	C1346.063232,163.105713 1345.171143,165.512222 1343.942017,168.828049 
	C1346.454102,169.209335 1348.755615,169.857452 1351.058716,169.862885 
	C1380.482666,169.931992 1409.914917,169.522964 1439.325684,170.149948 
	C1447.903198,170.332825 1453.556885,167.508575 1458.014526,160.838608 
	C1458.397827,161.977631 1459.114014,163.116058 1459.116089,164.255768 
	C1459.173706,196.747101 1459.160645,229.238541 1459.149048,261.729980 
	C1459.148926,262.221649 1459.026611,262.713226 1458.913574,263.564209 
	C1421.839600,263.564209 1384.749023,263.564209 1347.157959,263.564209 
	C1347.157959,320.133026 1347.157959,376.341736 1347.157959,432.999420 
	C1345.714600,432.999420 1344.767700,432.999390 1343.820801,432.999390 
	C1308.996582,432.999298 1274.172485,433.013000 1239.348267,432.962494 
	C1237.405029,432.959656 1234.171265,434.259430 1235.458496,429.513367 
	C1241.397827,426.342163 1244.047607,422.441650 1244.038330,415.749084 
	C1243.857178,284.132050 1243.904175,152.514679 1243.900391,20.897396 
	C1243.900269,17.901340 1243.849243,14.905283 1243.821899,11.909220 
z"/>
<path fill="#000000" opacity="1.000000" stroke="none" 
	d="
M920.014282,111.843300 
	C920.397827,112.979622 921.113831,114.115265 921.116150,115.252350 
	C921.169861,141.709503 921.146912,168.166840 921.125732,194.624130 
	C921.125488,194.923157 920.961365,195.222031 920.772766,195.864944 
	C904.614746,195.864944 888.363403,195.864944 871.563354,195.864944 
	C871.563354,245.899841 871.563354,295.588867 871.898743,345.984924 
	C871.979370,347.467255 871.849487,348.314606 871.450256,349.006500 
	C867.917603,355.129486 868.306946,355.884583 875.270264,355.908234 
	C884.539734,355.939697 893.850220,355.379333 903.066772,356.078552 
	C911.298706,356.703125 915.342102,352.018036 919.066284,346.134125 
	C919.646667,346.682007 920.733215,347.228424 920.734863,347.777954 
	C920.817261,376.014587 920.807434,404.251465 920.807434,432.999847 
	C919.023743,432.999847 917.580505,432.999847 916.137329,432.999847 
	C881.374207,432.999847 846.610779,433.061188 811.848755,432.867676 
	C809.422363,432.854156 806.464905,431.522583 804.678162,429.829254 
	C796.353027,421.939301 788.352844,413.706482 780.128662,404.910004 
	C780.929626,402.724762 782.085388,401.316376 782.677856,399.701416 
	C783.271240,398.083923 783.302063,396.260040 783.779419,393.276978 
	C780.778809,394.935516 779.142761,396.606018 777.993408,396.320099 
	C775.375366,395.668671 772.996216,394.057556 770.519958,392.836456 
	C771.379089,391.371155 772.356750,389.959869 773.056824,388.422180 
	C773.549500,387.340240 773.664734,386.086456 773.917603,384.447174 
	C773.896362,322.614197 773.915405,261.243439 773.876953,199.872726 
	C773.875549,197.701965 773.304016,195.531586 772.920837,192.811813 
	C769.396423,194.464691 766.753967,195.703949 764.111450,196.943207 
	C759.477295,196.628738 754.846558,196.242538 750.207825,196.025681 
	C747.241882,195.886993 744.252380,196.144318 741.299561,195.903549 
	C740.479492,195.836670 739.752625,194.625412 739.369141,193.419739 
	C743.174194,189.734070 747.943726,187.693573 747.911621,181.835007 
	C747.802307,161.862503 747.832397,141.889252 747.925781,121.671371 
	C748.334045,121.222076 748.625793,121.017685 749.384521,120.875366 
	C754.915161,120.759285 759.978821,120.581139 765.429077,120.367126 
	C770.695068,119.687004 772.795532,116.546989 773.520996,111.694275 
	C773.690735,109.945030 773.651611,108.486000 773.713867,106.567474 
	C773.650330,88.102196 773.485413,70.096397 773.466309,51.729225 
	C773.679260,47.257206 776.701477,47.870285 779.276794,47.868793 
	C803.605469,47.854679 827.945923,47.426079 852.256409,48.090847 
	C860.847595,48.325775 865.927063,44.770180 870.167297,38.346924 
	C870.613403,40.106606 871.439758,41.864536 871.447876,43.626244 
	C871.550415,65.858444 871.535034,88.091171 871.691833,111.150757 
	C871.746704,112.604637 871.831787,113.326637 871.546143,113.843971 
	C867.959473,120.340050 868.251282,120.891029 875.582031,120.911011 
	C884.194519,120.934479 892.872498,120.258156 901.401428,121.103157 
	C909.984253,121.953506 915.585144,118.492973 920.014282,111.843300 
z"/>
<path fill="#000000" opacity="1.000000" stroke="none" 
	d="
M1961.963867,111.941772 
	C1962.807983,112.750252 1964.386230,113.555191 1964.390137,114.367729 
	C1964.518921,140.993515 1964.496338,167.620010 1964.496338,194.710464 
	C1939.542480,194.710464 1914.997192,194.710464 1890.138672,194.710464 
	C1890.138672,274.245178 1890.138672,353.314941 1890.138672,432.677460 
	C1888.752686,432.802094 1887.653320,432.986786 1886.554077,432.987274 
	C1853.067871,433.002411 1819.581665,433.012573 1786.095459,432.966370 
	C1784.116333,432.963623 1780.906982,434.185364 1782.282349,429.484131 
	C1788.318237,426.443695 1791.054688,422.633698 1791.040405,415.889496 
	C1790.838135,320.498199 1790.900269,225.106277 1790.916748,129.714508 
	C1790.917236,126.890007 1791.118408,124.065529 1791.674316,121.170166 
	C1819.338379,121.035728 1846.555664,120.788689 1873.768433,121.034050 
	C1880.815308,121.097603 1884.100952,117.189651 1886.963867,111.941772 
	C1889.451782,111.158272 1890.088135,112.228943 1890.040527,114.617332 
	C1889.918335,120.736938 1890.004517,126.860703 1890.164673,133.843582 
	C1890.433105,137.169998 1890.544312,139.635651 1890.655518,142.101288 
	C1893.550293,140.852402 1896.824707,140.101120 1899.256226,138.245361 
	C1903.588745,134.938873 1907.406372,130.958847 1911.449707,127.271858 
	C1913.880615,125.055298 1916.331177,122.860558 1919.242798,120.771698 
	C1929.375732,120.894470 1939.055176,120.558640 1948.696167,121.022415 
	C1955.788574,121.363586 1959.087280,117.214569 1961.963867,111.941772 
z"/>
<path fill="#000000" opacity="1.000000" stroke="none" 
	d="
M2782.039551,533.999634 
	C2779.092285,533.999634 2776.638916,533.999634 2774.083984,533.999634 
	C2774.083984,525.654419 2774.083984,517.751892 2774.083984,509.777069 
	C2793.556152,509.777069 2812.776367,509.777069 2832.389404,509.777069 
	C2832.389404,535.956299 2832.389404,561.863281 2832.389404,588.213562 
	C2842.678711,588.213562 2852.590820,588.213562 2862.833496,588.213562 
	C2862.833496,596.560181 2862.833496,604.474548 2862.833496,612.695801 
	C2831.473389,612.695801 2799.933350,612.695801 2768.112793,612.695801 
	C2768.112793,604.839417 2768.112793,596.953186 2768.112793,588.635254 
	C2780.575195,588.635254 2792.972656,588.635254 2805.682617,588.635254 
	C2805.682617,570.335449 2805.682617,552.460205 2805.682617,533.999634 
	C2798.047607,533.999634 2790.290527,533.999634 2782.039551,533.999634 
z"/>
<path fill="#5A5A5A" opacity="1.000000" stroke="none" 
	d="
M1243.469604,11.946588 
	C1243.849243,14.905283 1243.900269,17.901340 1243.900391,20.897396 
	C1243.904175,152.514679 1243.857178,284.132050 1244.038330,415.749084 
	C1244.047607,422.441650 1241.397827,426.342163 1235.520752,429.072937 
	C1235.087891,425.771301 1234.928589,422.453430 1234.928589,419.135559 
	C1234.928955,282.075806 1234.943726,145.016068 1235.005493,7.491738 
	C1237.742065,8.679416 1240.429688,10.331681 1243.469604,11.946588 
z"/>
<path fill="#474747" opacity="1.000000" stroke="none" 
	d="
M100.997894,109.394051 
	C103.733315,107.884018 106.410088,106.792389 109.595421,105.493355 
	C109.997223,106.636673 110.689613,107.925789 110.892746,109.287865 
	C113.577629,127.291939 116.295448,145.292145 118.798477,163.321991 
	C121.324448,181.517105 123.180634,199.816055 126.143974,217.936432 
	C128.952087,235.107590 132.887878,252.092117 136.199707,269.183533 
	C144.145401,310.188721 152.020996,351.207520 159.912064,392.223297 
	C161.321121,399.547241 162.079300,407.059692 164.209122,414.164001 
	C166.372208,421.379333 163.814346,425.976837 157.941589,429.957489 
	C152.374969,403.386780 147.125732,376.738434 141.953690,350.075073 
	C135.451126,316.552521 128.690659,283.075470 122.648056,249.469696 
	C117.923416,223.193726 114.036888,196.764954 109.939934,170.378906 
	C106.808380,150.210495 103.930153,130.002716 100.997894,109.394051 
z"/>
<path fill="#5A5A5A" opacity="1.000000" stroke="none" 
	d="
M1791.225952,121.241043 
	C1791.118408,124.065529 1790.917236,126.890007 1790.916748,129.714508 
	C1790.900269,225.106277 1790.838135,320.498199 1791.040405,415.889496 
	C1791.054688,422.633698 1788.318237,426.443695 1782.373291,429.032104 
	C1781.885498,427.869110 1781.640625,426.727966 1781.640381,425.586792 
	C1781.628662,324.024445 1781.634644,222.462097 1781.647339,120.899757 
	C1781.647583,119.236244 1781.744263,117.572746 1782.149170,115.583633 
	C1785.298462,117.136681 1788.094238,119.015335 1790.974854,120.980087 
	C1791.059448,121.066177 1791.225952,121.241043 1791.225952,121.241043 
z"/>
<path fill="#5A5A5A" opacity="1.000000" stroke="none" 
	d="
M326.623322,172.923279 
	C326.121674,184.004013 325.631195,195.085266 325.114685,206.165314 
	C324.728271,214.453659 323.970703,222.739899 323.957184,231.028015 
	C323.857422,292.156952 323.771606,353.286774 324.075256,414.414368 
	C324.111725,421.758423 321.492218,426.371155 315.241913,429.899719 
	C314.823395,426.891174 314.649963,423.773376 314.649109,420.655518 
	C314.633148,361.256897 314.356232,301.856232 314.778473,242.460632 
	C314.943542,219.236832 316.688477,196.024246 318.274719,172.402252 
	C321.431519,172.306396 324.027435,172.614838 326.623322,172.923279 
z"/>
<path fill="#5E5E5E" opacity="1.000000" stroke="none" 
	d="
M2284.866943,157.890717 
	C2284.871338,232.277512 2284.790771,306.664581 2285.037354,381.050598 
	C2285.057861,387.232422 2280.617676,387.601471 2276.898926,389.925293 
	C2276.056152,388.760010 2275.153809,387.479218 2275.153320,386.198120 
	C2275.123047,309.511932 2275.167480,232.825745 2275.589844,155.639252 
	C2278.938965,156.056213 2281.902832,156.973465 2284.866943,157.890717 
z"/>
<path fill="#5E5E5E" opacity="1.000000" stroke="none" 
	d="
M460.866425,157.891174 
	C460.871124,232.278000 460.790314,306.665070 461.037048,381.051086 
	C461.057556,387.233459 456.616699,387.601135 452.898499,389.925476 
	C452.055847,388.759888 451.153778,387.479065 451.153259,386.197876 
	C451.123260,309.511688 451.167389,232.825439 451.589783,155.639008 
	C454.938843,156.056259 457.902649,156.973724 460.866425,157.891174 
z"/>
<path fill="#5A5A5A" opacity="1.000000" stroke="none" 
	d="
M1990.877319,158.892914 
	C1990.884033,232.785355 1990.809570,306.678040 1991.044312,380.569763 
	C1991.064087,386.786865 1985.855347,386.026703 1982.976685,388.923279 
	C1982.449341,388.184204 1981.886597,387.152191 1981.886475,386.120056 
	C1981.870850,310.917938 1981.899292,235.715820 1981.931152,160.513702 
	C1981.931763,159.350189 1982.018677,158.186707 1982.436768,156.583023 
	C1985.498047,157.059525 1988.187622,157.976227 1990.877319,158.892914 
z"/>
<path fill="#5A5A5A" opacity="1.000000" stroke="none" 
	d="
M1495.631592,159.846863 
	C1495.722290,161.836472 1495.891724,163.826080 1495.892090,165.815704 
	C1495.905762,235.745819 1495.810303,305.676270 1496.056396,375.605499 
	C1496.079468,382.165894 1494.940186,386.809113 1487.893066,388.925842 
	C1487.299683,388.116943 1486.873657,387.208466 1486.873657,386.299957 
	C1486.875244,310.515442 1486.910034,234.730942 1487.374146,158.443665 
	C1490.414429,158.576233 1493.023071,159.211548 1495.631592,159.846863 
z"/>
<path fill="#575757" opacity="1.000000" stroke="none" 
	d="
M764.020325,197.407745 
	C766.753967,195.703949 769.396423,194.464691 772.920837,192.811813 
	C773.304016,195.531586 773.875549,197.701965 773.876953,199.872726 
	C773.915405,261.243439 773.896362,322.614197 773.539429,384.536987 
	C770.410400,385.542542 767.628601,385.996063 764.846863,386.449554 
	C764.548523,384.800049 763.990662,383.150726 763.989258,381.500977 
	C763.937195,320.291443 763.936707,259.081848 764.020325,197.407745 
z"/>
<path fill="#595959" opacity="1.000000" stroke="none" 
	d="
M2495.530273,111.768425 
	C2494.732910,120.301216 2494.076416,120.903152 2486.131104,120.907745 
	C2431.704590,120.939178 2377.278320,120.968819 2322.401611,120.528839 
	C2321.621094,117.280144 2321.290527,114.501648 2320.959961,111.723152 
	C2371.354004,111.695709 2421.748047,111.669907 2472.142090,111.639091 
	C2479.792236,111.634415 2487.442627,111.606529 2495.530273,111.768425 
z"/>
<path fill="#595959" opacity="1.000000" stroke="none" 
	d="
M671.529968,111.768448 
	C670.734253,120.299263 670.075745,120.903152 662.130920,120.907745 
	C607.704346,120.939209 553.277771,120.968872 498.401306,120.528954 
	C497.620911,117.280243 497.290405,114.501694 496.959900,111.723145 
	C547.353882,111.695702 597.747803,111.669899 648.141785,111.639099 
	C655.791992,111.634422 663.442139,111.606544 671.529968,111.768448 
z"/>
<path fill="#595959" opacity="1.000000" stroke="none" 
	d="
M1157.530029,111.768448 
	C1156.734375,120.299248 1156.075806,120.902939 1148.131958,120.907768 
	C1096.371704,120.939201 1044.611450,120.968864 992.394104,120.558517 
	C991.282349,117.355843 990.627747,114.593742 989.973145,111.831650 
	C1007.432312,111.768044 1024.891479,111.667412 1042.350708,111.648415 
	C1080.597900,111.606789 1118.845215,111.606552 1157.530029,111.768448 
z"/>
<path fill="#595959" opacity="1.000000" stroke="none" 
	d="
M1702.923340,112.472137 
	C1702.994141,112.973000 1702.767700,113.048439 1702.737793,113.171722 
	C1700.788818,121.180962 1694.869385,121.040428 1688.221680,121.017731 
	C1637.758179,120.845428 1587.293457,120.961037 1536.367920,120.515053 
	C1535.530273,117.277245 1535.153931,114.511284 1534.777710,111.745316 
	C1587.964111,111.710434 1641.150635,111.668999 1694.337036,111.659157 
	C1697.130615,111.658646 1699.924194,111.926254 1702.923340,112.472137 
z"/>
<path fill="#636363" opacity="1.000000" stroke="none" 
	d="
M869.705811,38.209064 
	C865.927063,44.770180 860.847595,48.325775 852.256409,48.090847 
	C827.945923,47.426079 803.605469,47.854679 779.276794,47.868793 
	C776.701477,47.870285 773.679260,47.257206 773.078064,51.673874 
	C769.721436,50.654953 766.898865,49.330013 764.076355,48.005081 
	C764.034485,47.240913 763.992615,46.476742 764.193298,45.263313 
	C764.493591,44.712852 764.624695,44.557972 764.596619,44.519676 
	C764.466431,44.341949 764.292175,44.196510 764.133667,44.039520 
	C764.133667,42.390617 764.133667,40.741718 764.133667,38.071201 
	C799.273438,38.071201 834.258850,38.071201 869.705811,38.209064 
z"/>
<path fill="#5A5A5A" opacity="1.000000" stroke="none" 
	d="
M947.910828,280.922760 
	C947.907776,314.610687 947.820801,348.299042 948.002930,381.985962 
	C948.026978,386.426025 946.969727,389.298492 942.600830,390.655060 
	C941.734741,390.923981 941.060364,391.810211 940.132080,392.723511 
	C939.490295,391.889282 938.597473,390.743011 938.598206,389.597290 
	C938.620544,353.036865 938.729431,316.476501 939.233826,279.462494 
	C942.398560,279.646851 945.154663,280.284790 947.910828,280.922760 
z"/>
<path fill="#595959" opacity="1.000000" stroke="none" 
	d="
M1457.707886,160.648071 
	C1453.556885,167.508575 1447.903198,170.332825 1439.325684,170.149948 
	C1409.914917,169.522964 1380.482666,169.931992 1351.058716,169.862885 
	C1348.755615,169.857452 1346.454102,169.209335 1343.942017,168.828049 
	C1345.171143,165.512222 1346.063232,163.105713 1347.003662,160.316040 
	C1348.524048,160.164001 1349.996338,160.597321 1351.468262,160.596558 
	C1386.779297,160.578384 1422.090210,160.513748 1457.707886,160.648071 
z"/>
<path fill="#575757" opacity="1.000000" stroke="none" 
	d="
M2533.603516,325.030670 
	C2530.329834,331.037445 2526.239502,335.271454 2518.019287,335.112823 
	C2491.638916,334.603668 2465.242432,334.947540 2438.427734,334.542236 
	C2435.367188,331.128723 2432.730957,328.135315 2430.094727,325.141937 
	C2460.294678,325.078705 2490.494873,325.015381 2520.694824,324.952209 
	C2524.843262,324.943542 2528.991943,324.935608 2533.603516,325.030670 
z"/>
<path fill="#575757" opacity="1.000000" stroke="none" 
	d="
M709.603271,325.030762 
	C706.330261,331.038177 702.239563,335.271332 694.019348,335.112732 
	C667.639099,334.603760 641.242310,334.947601 614.427612,334.542236 
	C611.367310,331.128693 608.731384,328.135284 606.095398,325.141907 
	C636.295166,325.078644 666.494995,325.015350 696.694763,324.952179 
	C700.843262,324.943512 704.991821,324.935699 709.603271,325.030762 
z"/>
<path fill="#5A5A5A" opacity="1.000000" stroke="none" 
	d="
M1090.098022,240.600464 
	C1084.120117,240.701233 1078.142334,240.877289 1072.164307,240.889938 
	C1044.055542,240.949402 1015.946716,240.963974 987.340576,240.578217 
	C985.822693,237.382065 984.802185,234.602234 983.781677,231.822403 
	C1018.555298,231.784088 1053.328857,231.745773 1088.562744,232.219452 
	C1089.381348,235.354446 1089.739624,237.977463 1090.098022,240.600464 
z"/>
<path fill="#030303" opacity="1.000000" stroke="none" 
	d="
M2801.243164,477.339478 
	C2802.003418,466.761932 2811.023193,459.849976 2822.580566,462.422607 
	C2832.268311,464.579010 2837.137695,474.157104 2834.120117,484.300415 
	C2831.941406,491.623352 2825.692139,495.790497 2817.300049,495.515381 
	C2809.394775,495.256226 2803.467285,490.566589 2801.855469,483.180389 
	C2801.468262,481.404663 2801.391357,479.561279 2801.243164,477.339478 
z"/>
<path fill="#595959" opacity="1.000000" stroke="none" 
	d="
M1886.523315,111.772736 
	C1884.100952,117.189651 1880.815308,121.097603 1873.768433,121.034050 
	C1846.555664,120.788689 1819.338379,121.035728 1791.674316,121.170166 
	C1791.225952,121.241043 1791.059448,121.066177 1791.060303,120.626297 
	C1789.357910,117.378120 1787.654785,114.569817 1785.951660,111.761536 
	C1819.328735,111.708946 1852.705688,111.656326 1886.523315,111.772736 
z"/>
<path fill="#5E5E5E" opacity="1.000000" stroke="none" 
	d="
M2237.512695,111.757645 
	C2235.057617,117.153519 2231.786377,121.108398 2224.718018,121.007729 
	C2198.479248,120.634064 2172.233643,120.762054 2145.529785,120.172859 
	C2143.697998,117.032288 2142.326660,114.420486 2140.955322,111.808693 
	C2168.013916,111.745567 2195.072754,111.682297 2222.131348,111.619431 
	C2227.112061,111.607857 2232.092773,111.597923 2237.512695,111.757645 
z"/>
<path fill="#595959" opacity="1.000000" stroke="none" 
	d="
M2086.523926,448.772522 
	C2084.087402,454.209839 2080.780518,458.127106 2073.705811,458.035309 
	C2049.061035,457.715424 2024.409058,457.926178 1999.300415,457.489868 
	C1997.450073,454.241669 1996.059204,451.438812 1994.668213,448.635986 
	C2025.139893,448.625214 2055.611572,448.614441 2086.523926,448.772522 
z"/>
<path fill="#595959" opacity="1.000000" stroke="none" 
	d="
M2111.752441,112.125946 
	C2110.158936,119.949524 2105.217529,121.262413 2098.006348,121.095688 
	C2075.585449,120.577255 2053.145020,120.894020 2030.233154,120.399391 
	C2029.156250,117.182381 2028.558105,114.452766 2027.959961,111.723145 
	C2055.803711,111.743095 2083.647705,111.763046 2111.752441,112.125946 
z"/>
<path fill="#5E5E5E" opacity="1.000000" stroke="none" 
	d="
M747.809265,121.916275 
	C747.832397,141.889252 747.802307,161.862503 747.911621,181.835007 
	C747.943726,187.693573 743.174194,189.734070 739.427551,192.978439 
	C739.047974,168.021317 738.996033,142.986084 739.340210,117.500107 
	C742.427368,118.671677 745.118286,120.293976 747.809265,121.916275 
z"/>
<path fill="#575757" opacity="1.000000" stroke="none" 
	d="
M317.973572,108.438110 
	C320.673187,107.198051 323.297180,106.423088 326.680725,105.423790 
	C327.058289,106.997345 327.846008,108.767235 327.852295,110.539894 
	C327.916870,128.749084 327.854797,146.958710 327.317627,165.610367 
	C323.896942,165.696259 320.986694,165.339996 318.076447,164.983749 
	C318.016937,146.290237 317.957428,127.596725 317.973572,108.438110 
z"/>
<path fill="#B5B5B5" opacity="1.000000" stroke="none" 
	d="
M983.426208,231.741669 
	C984.802185,234.602234 985.822693,237.382065 986.868652,240.518585 
	C973.985474,254.018326 961.076965,267.161346 948.039612,280.613586 
	C945.154663,280.284790 942.398560,279.646851 939.244873,278.992554 
	C939.148987,277.904724 939.123596,276.524353 939.800598,275.807434 
	C952.982239,261.849365 966.231995,247.955276 979.521545,234.099777 
	C980.494568,233.085388 981.878113,232.464691 983.426208,231.741669 
z"/>
<path fill="#5A5A5A" opacity="1.000000" stroke="none" 
	d="
M764.018799,48.470341 
	C766.898865,49.330013 769.721436,50.654953 772.932251,52.035248 
	C773.485413,70.096397 773.650330,88.102196 773.298340,106.561752 
	C770.207153,107.009598 767.632874,107.003693 764.825317,106.994751 
	C764.592102,106.991722 764.126282,107.015633 764.126282,107.015633 
	C764.071289,87.655624 764.016296,68.295616 764.018799,48.470341 
z"/>
<path fill="#595959" opacity="1.000000" stroke="none" 
	d="
M954.880737,158.893799 
	C954.888428,173.854004 954.869995,188.814285 954.916077,203.774384 
	C954.935852,210.179092 949.468079,212.318619 945.438843,215.948898 
	C945.085510,196.375458 945.047607,176.688232 945.410889,156.479187 
	C948.834900,156.936172 951.857849,157.914993 954.880737,158.893799 
z"/>
<path fill="#B9B9B9" opacity="1.000000" stroke="none" 
	d="
M955.055908,158.610794 
	C951.857849,157.914993 948.834900,156.936172 945.437012,156.015778 
	C953.854614,146.724152 962.643738,137.370789 971.441284,128.025345 
	C976.079407,123.098366 980.732361,118.185272 985.821167,113.448044 
	C987.206787,116.826584 988.149841,120.022980 989.092896,123.219368 
	C977.805603,134.922165 966.518372,146.624969 955.055908,158.610794 
z"/>
<path fill="#595959" opacity="1.000000" stroke="none" 
	d="
M2133.610107,413.643127 
	C2136.186523,412.259460 2138.627441,411.315491 2141.848877,410.069702 
	C2144.001709,419.961731 2142.611084,429.704010 2142.847656,439.326630 
	C2143.084473,448.973022 2142.832275,458.631439 2142.265137,468.717651 
	C2139.095947,468.428650 2136.455811,467.706573 2133.815918,466.984467 
	C2133.702148,449.350586 2133.588379,431.716736 2133.610107,413.643127 
z"/>
<path fill="#B9B9B9" opacity="1.000000" stroke="none" 
	d="
M1991.053711,158.610519 
	C1988.187622,157.976227 1985.498047,157.059525 1982.451172,156.120514 
	C1982.776001,154.876785 1983.225708,153.424667 1984.175171,152.468811 
	C1997.203979,139.350952 2010.301636,126.301521 2023.682983,113.467911 
	C2025.018555,116.526611 2026.053589,119.352715 2027.088867,122.178848 
	C2015.135864,134.228622 2003.182861,146.278366 1991.053711,158.610519 
z"/>
<path fill="#B9B9B9" opacity="1.000000" stroke="none" 
	d="
M2285.046631,157.610107 
	C2281.902832,156.973465 2278.938965,156.056213 2275.605957,155.185577 
	C2275.716064,154.428101 2276.053955,153.482849 2276.695557,152.840805 
	C2289.903564,139.618301 2303.146240,126.430321 2316.683105,113.478485 
	C2317.687012,116.887459 2318.389893,120.053459 2319.092773,123.219460 
	C2307.803955,134.589478 2296.515137,145.959488 2285.046631,157.610107 
z"/>
<path fill="#B9B9B9" opacity="1.000000" stroke="none" 
	d="
M461.046234,157.610519 
	C457.902649,156.973724 454.938843,156.056259 451.606018,155.185333 
	C451.716156,154.427811 452.054047,153.482635 452.695404,152.840591 
	C465.903595,139.618164 479.146301,126.430222 492.682953,113.478462 
	C493.686829,116.887405 494.389923,120.053345 495.092987,123.219299 
	C483.804016,134.589493 472.515045,145.959686 461.046234,157.610519 
z"/>
<path fill="#B5B5B5" opacity="1.000000" stroke="none" 
	d="
M1531.091064,124.223602 
	C1519.969849,135.098343 1508.848633,145.973099 1497.015869,156.916656 
	C1493.236816,156.008942 1490.169556,155.032440 1487.102173,154.055923 
	C1496.223511,145.143753 1505.303467,136.188507 1514.486694,127.340553 
	C1518.186279,123.775833 1522.112549,120.446220 1526.581909,117.085175 
	C1528.515747,119.515038 1529.803467,121.869331 1531.091064,124.223602 
z"/>
<path fill="#575757" opacity="1.000000" stroke="none" 
	d="
M919.653564,111.656189 
	C915.585144,118.492973 909.984253,121.953506 901.401428,121.103157 
	C892.872498,120.258156 884.194519,120.934479 875.582031,120.911011 
	C868.251282,120.891029 867.959473,120.340050 871.546143,113.843971 
	C871.831787,113.326637 871.746704,112.604637 871.843628,111.614784 
	C887.666504,111.324249 903.479675,111.396667 919.653564,111.656189 
z"/>
<path fill="#575757" opacity="1.000000" stroke="none" 
	d="
M918.603333,346.030792 
	C915.342102,352.018036 911.298706,356.703125 903.066772,356.078552 
	C893.850220,355.379333 884.539734,355.939697 875.270264,355.908234 
	C868.306946,355.884583 867.917603,355.129486 871.450256,349.006500 
	C871.849487,348.314606 871.979370,347.467255 872.135376,346.316467 
	C887.404602,345.936493 902.772461,345.931976 918.603333,346.030792 
z"/>
<path fill="#595959" opacity="1.000000" stroke="none" 
	d="
M2427.185547,357.527863 
	C2414.445068,359.133240 2382.745605,358.189545 2379.038330,355.906586 
	C2380.084961,353.762573 2381.150391,351.579834 2382.293945,349.009399 
	C2396.265625,348.645020 2410.158936,348.668365 2424.664795,349.113373 
	C2425.913330,352.199310 2426.549561,354.863586 2427.185547,357.527863 
z"/>
<path fill="#595959" opacity="1.000000" stroke="none" 
	d="
M603.185059,357.527832 
	C590.446777,359.133087 558.745605,358.189514 555.037231,355.905914 
	C556.084229,353.762299 557.150269,351.579895 558.294312,349.009857 
	C572.265808,348.645386 586.159180,348.668579 600.664673,349.113403 
	C601.912964,352.199310 602.549011,354.863556 603.185059,357.527832 
z"/>
<path fill="#595959" opacity="1.000000" stroke="none" 
	d="
M2133.185303,478.527588 
	C2117.881592,479.016418 2102.578369,479.481995 2086.424561,478.151489 
	C2088.077148,474.770874 2089.143066,472.590576 2090.276611,470.021484 
	C2103.580322,469.652405 2116.816406,469.672089 2130.664551,470.113403 
	C2131.912842,473.199249 2132.549072,475.863403 2133.185303,478.527588 
z"/>
<path fill="#5A5A5A" opacity="1.000000" stroke="none" 
	d="
M1997.734131,458.819214 
	C1997.777100,469.887970 1997.820068,480.956726 1997.537598,492.586853 
	C1994.379883,493.924011 1991.547607,494.699768 1988.715332,495.475525 
	C1988.522095,488.444183 1988.252441,481.413910 1988.157349,474.381226 
	C1988.065674,467.614319 1988.154663,460.845001 1988.519043,453.590149 
	C1991.827026,455.008820 1994.780518,456.914032 1997.734131,458.819214 
z"/>
<path fill="#5A5A5A" opacity="1.000000" stroke="none" 
	d="
M1091.528687,193.826660 
	C1094.046875,192.386414 1096.472168,191.383102 1100.146240,189.863174 
	C1101.520508,204.708557 1100.961914,219.066177 1099.890137,233.668427 
	C1096.809570,232.946579 1094.382812,231.974838 1091.955933,231.003082 
	C1091.782593,218.756592 1091.609131,206.510101 1091.528687,193.826660 
z"/>
<path fill="#595959" opacity="1.000000" stroke="none" 
	d="
M1961.523315,111.772736 
	C1959.087280,117.214569 1955.788574,121.363586 1948.696167,121.022415 
	C1939.055176,120.558640 1929.375732,120.894470 1919.233887,120.397797 
	C1918.157837,117.179733 1917.560669,114.451263 1916.963501,111.722786 
	C1931.669922,111.683090 1946.376343,111.643394 1961.523315,111.772736 
z"/>
<path fill="#B0B0B0" opacity="1.000000" stroke="none" 
	d="
M1916.727051,111.505707 
	C1917.560669,114.451263 1918.157837,117.179733 1918.763916,120.282104 
	C1916.331177,122.860558 1913.880615,125.055298 1911.449707,127.271858 
	C1907.406372,130.958847 1903.588745,134.938873 1899.256226,138.245361 
	C1896.824707,140.101120 1893.550293,140.852402 1890.655518,142.101288 
	C1890.544312,139.635651 1890.433105,137.169998 1890.268311,134.294495 
	C1897.445312,127.101295 1904.630127,120.268074 1911.951538,113.584297 
	C1913.157715,112.483078 1914.962402,112.037277 1916.727051,111.505707 
z"/>
<path fill="#575757" opacity="1.000000" stroke="none" 
	d="
M1091.527832,412.176575 
	C1094.062866,410.794678 1096.444824,409.877502 1098.954224,408.911194 
	C1101.953003,412.466492 1101.912842,421.329773 1098.534668,424.805389 
	C1096.562378,426.834503 1094.471191,428.747925 1092.128906,430.867188 
	C1091.674438,424.894409 1091.524658,418.767822 1091.527832,412.176575 
z"/>
<path fill="#5E5E5E" opacity="1.000000" stroke="none" 
	d="
M765.042480,120.403000 
	C759.978821,120.581139 754.915161,120.759285 749.417847,120.524078 
	C746.986938,117.375420 744.989685,114.640106 742.992493,111.904793 
	C749.357666,111.858978 755.722839,111.813164 762.540894,112.274155 
	C763.676636,115.321640 764.359558,117.862312 765.042480,120.403000 
z"/>
<path fill="#5E5E5E" opacity="1.000000" stroke="none" 
	d="
M612.809082,335.916199 
	C612.793701,340.054626 612.778320,344.193054 612.159790,348.653503 
	C609.085144,348.299896 606.613647,347.624237 604.142151,346.948578 
	C604.076172,341.948059 604.010193,336.947510 604.340332,331.498169 
	C607.427246,332.671631 610.118164,334.293915 612.809082,335.916199 
z"/>
<path fill="#5E5E5E" opacity="1.000000" stroke="none" 
	d="
M2436.809326,335.916382 
	C2436.793701,340.054657 2436.778320,344.192932 2436.159912,348.653412 
	C2433.085205,348.299835 2430.613281,347.624054 2428.141602,346.948303 
	C2428.075684,341.947815 2428.009766,336.947357 2428.340088,331.498047 
	C2431.427246,332.671600 2434.118164,334.294006 2436.809326,335.916382 
z"/>
<path fill="#030303" opacity="1.000000" stroke="none" 
	d="
M764.535767,386.665771 
	C767.628601,385.996063 770.410400,385.542542 773.570312,384.999207 
	C773.664734,386.086456 773.549500,387.340240 773.056824,388.422180 
	C772.356750,389.959869 771.379089,391.371155 770.519958,392.836456 
	C772.996216,394.057556 775.375366,395.668671 777.993408,396.320099 
	C779.142761,396.606018 780.778809,394.935516 783.779419,393.276978 
	C783.302063,396.260040 783.271240,398.083923 782.677856,399.701416 
	C782.085388,401.316376 780.929626,402.724762 780.017090,404.592285 
	C775.146729,400.107269 770.227051,395.304749 765.467163,390.348755 
	C764.691162,389.540741 764.621033,388.054657 764.535767,386.665771 
z"/>
<path fill="#030303" opacity="1.000000" stroke="none" 
	d="
M1988.589844,495.874664 
	C1991.547607,494.699768 1994.379883,493.924011 1997.564941,493.052246 
	C1999.092163,494.287689 2000.770752,495.444397 2001.308960,496.996521 
	C2001.928833,498.783966 2001.767822,500.949097 2001.524780,502.897675 
	C2001.296265,504.731232 2000.519653,506.496460 1999.970703,508.703430 
	C1996.126099,504.834656 1992.295166,500.554199 1988.589844,495.874664 
z"/>
<path fill="#777777" opacity="1.000000" stroke="none" 
	d="
M2142.569092,132.104218 
	C2141.577881,140.439896 2136.032715,143.744141 2129.134521,140.317429 
	C2129.769531,137.477798 2130.392822,134.689163 2130.963867,131.504395 
	C2131.750000,130.940933 2132.588379,130.773621 2134.024414,130.336426 
	C2137.270996,130.745789 2139.919922,131.425003 2142.569092,132.104218 
z"/>
<path fill="#5E5E5E" opacity="1.000000" stroke="none" 
	d="
M2142.688965,131.656433 
	C2139.919922,131.425003 2137.270996,130.745789 2134.241211,130.015747 
	C2133.795410,126.266762 2133.729980,122.568581 2134.103760,118.444321 
	C2137.267578,119.656845 2139.991943,121.295441 2142.716553,122.934052 
	C2142.747314,125.692253 2142.778076,128.450439 2142.688965,131.656433 
z"/>
<path fill="#777777" opacity="1.000000" stroke="none" 
	d="
M2142.814209,122.625694 
	C2139.991943,121.295441 2137.267578,119.656845 2134.181641,117.986404 
	C2133.101074,111.448540 2133.163086,111.386818 2140.611328,111.674728 
	C2142.326660,114.420486 2143.697998,117.032288 2145.161621,120.032272 
	C2144.473389,121.052765 2143.692627,121.685059 2142.814209,122.625694 
z"/>
<path fill="#030303" opacity="1.000000" stroke="none" 
	d="
M2002.928467,512.390442 
	C2003.845459,512.505005 2005.187012,512.673462 2005.819702,513.432739 
	C2008.879761,517.104736 2012.308960,518.142822 2016.663696,515.771057 
	C2017.302368,515.423218 2019.109131,515.773560 2019.160156,516.036987 
	C2019.416016,517.353760 2019.529053,518.816223 2019.200684,520.101929 
	C2018.660889,522.215881 2017.742920,524.233276 2016.970703,526.703247 
	C2012.313599,522.315613 2007.670044,517.516113 2002.928467,512.390442 
z"/>
<path fill="#8D8D8D" opacity="1.000000" stroke="none" 
	d="
M2133.529541,478.556396 
	C2132.549072,475.863403 2131.912842,473.199249 2131.127930,470.181305 
	C2131.801514,469.044037 2132.624023,468.260529 2133.631104,467.230743 
	C2136.455811,467.706573 2139.095947,468.428650 2142.111328,469.175354 
	C2142.123535,474.629761 2139.456299,477.945068 2133.529541,478.556396 
z"/>
<path fill="#8D8D8D" opacity="1.000000" stroke="none" 
	d="
M603.991882,347.246826 
	C606.613647,347.624237 609.085144,348.299896 611.955444,349.008789 
	C611.768738,354.114777 609.025024,357.045441 603.529297,357.557098 
	C602.549011,354.863556 601.912964,352.199310 601.128052,349.181274 
	C601.933411,348.400024 602.887512,347.972565 603.991882,347.246826 
z"/>
<path fill="#8D8D8D" opacity="1.000000" stroke="none" 
	d="
M2427.991699,347.246643 
	C2430.613281,347.624054 2433.085205,348.299835 2435.955566,349.008789 
	C2435.768311,354.113953 2433.025635,357.045380 2427.529785,357.557129 
	C2426.549561,354.863586 2425.913330,352.199310 2425.128418,349.181274 
	C2425.933594,348.400024 2426.887451,347.972534 2427.991699,347.246643 
z"/>
<path fill="#B0B0B0" opacity="1.000000" stroke="none" 
	d="
M1531.391357,124.090439 
	C1529.803467,121.869331 1528.515747,119.515038 1526.888672,116.978882 
	C1528.564331,114.237007 1529.793213,110.555382 1534.495117,111.584717 
	C1535.153931,114.511284 1535.530273,117.277245 1535.895996,120.450531 
	C1534.487549,121.890976 1533.089600,122.924110 1531.391357,124.090439 
z"/>
<path fill="#B0B0B0" opacity="1.000000" stroke="none" 
	d="
M1997.840820,458.573914 
	C1994.780518,456.914032 1991.827026,455.008820 1988.535645,453.132019 
	C1986.802490,447.538940 1990.296265,447.789154 1994.343506,448.474884 
	C1996.059204,451.438812 1997.450073,454.241669 1998.829468,457.392578 
	C1998.527832,457.936646 1998.237671,458.132599 1997.840820,458.573914 
z"/>
<path fill="#8D8D8D" opacity="1.000000" stroke="none" 
	d="
M765.429077,120.367119 
	C764.359558,117.862312 763.676636,115.321640 762.996948,112.393356 
	C763.249634,111.759987 763.498962,111.514236 764.262573,110.956123 
	C767.621887,111.090675 770.467041,111.537582 773.312134,111.984489 
	C772.795532,116.546989 770.695068,119.687004 765.429077,120.367119 
z"/>
<path fill="#717171" opacity="1.000000" stroke="none" 
	d="
M318.010925,165.418457 
	C320.986694,165.339996 323.896942,165.696259 327.207031,166.072266 
	C327.342743,168.116318 327.078613,170.140610 326.718903,172.544098 
	C324.027435,172.614838 321.431519,172.306396 318.420227,171.999481 
	C317.985016,169.951736 317.965179,167.902435 318.010925,165.418457 
z"/>
<path fill="#8D8D8D" opacity="1.000000" stroke="none" 
	d="
M742.717896,111.695663 
	C744.989685,114.640106 746.986938,117.375420 748.950806,120.462013 
	C748.625793,121.017685 748.334045,121.222076 747.925781,121.671371 
	C745.118286,120.293976 742.427368,118.671677 739.390747,117.035080 
	C739.318237,114.648216 737.404724,110.932983 742.717896,111.695663 
z"/>
<path fill="#8D8D8D" opacity="1.000000" stroke="none" 
	d="
M612.924072,335.673187 
	C610.118164,334.293915 607.427246,332.671631 604.390747,331.035034 
	C604.454285,329.020355 604.863464,327.019958 605.684021,325.080750 
	C608.731384,328.135284 611.367310,331.128693 613.957520,334.477783 
	C613.620850,335.032379 613.329956,335.231262 612.924072,335.673187 
z"/>
<path fill="#8D8D8D" opacity="1.000000" stroke="none" 
	d="
M2436.924316,335.673248 
	C2434.118164,334.294006 2431.427246,332.671600 2428.390381,331.034912 
	C2428.453857,329.020233 2428.863037,327.019897 2429.683594,325.080750 
	C2432.730957,328.135315 2435.367188,331.128723 2437.957764,334.477814 
	C2437.621094,335.032379 2437.330078,335.231262 2436.924316,335.673248 
z"/>
<path fill="#B0B0B0" opacity="1.000000" stroke="none" 
	d="
M1785.705688,111.534378 
	C1787.654785,114.569817 1789.357910,117.378120 1790.975586,120.540207 
	C1788.094238,119.015335 1785.298462,117.136681 1782.191406,115.114624 
	C1781.025757,111.572716 1781.313232,111.278381 1785.705688,111.534378 
z"/>
<path fill="#B0B0B0" opacity="1.000000" stroke="none" 
	d="
M2027.379395,122.057556 
	C2026.053589,119.352715 2025.018555,116.526611 2023.970459,113.296463 
	C2025.148560,112.360588 2026.339600,111.828766 2027.745361,111.510040 
	C2028.558105,114.452766 2029.156250,117.182381 2029.763184,120.283821 
	C2029.071289,121.082527 2028.370728,121.509415 2027.379395,122.057556 
z"/>
<path fill="#B0B0B0" opacity="1.000000" stroke="none" 
	d="
M2319.380859,123.105667 
	C2318.389893,120.053459 2317.687012,116.887459 2316.970703,113.307083 
	C2318.148193,112.360809 2319.339355,111.828911 2320.745117,111.510086 
	C2321.290527,114.501648 2321.621094,117.280144 2321.930176,120.474030 
	C2321.162109,121.590240 2320.415283,122.291061 2319.380859,123.105667 
z"/>
<path fill="#B0B0B0" opacity="1.000000" stroke="none" 
	d="
M495.380859,123.105484 
	C494.389923,120.053345 493.686829,116.887405 492.970520,113.307037 
	C494.148346,112.360718 495.339417,111.828819 496.745209,111.510033 
	C497.290405,114.501694 497.620911,117.280243 497.929688,120.474197 
	C497.161560,121.590286 496.415131,122.290977 495.380859,123.105484 
z"/>
<path fill="#636363" opacity="1.000000" stroke="none" 
	d="
M773.520996,111.694275 
	C770.467041,111.537582 767.621887,111.090675 764.489014,110.818436 
	C764.166687,110.532616 764.132141,110.072113 764.362122,109.092484 
	C764.770569,108.048164 764.914551,107.522972 765.058472,106.997787 
	C767.632874,107.003693 770.207153,107.009598 773.197021,107.021233 
	C773.651611,108.486000 773.690735,109.945030 773.520996,111.694275 
z"/>
<path fill="#B0B0B0" opacity="1.000000" stroke="none" 
	d="
M989.380798,123.105522 
	C988.149841,120.022980 987.206787,116.826584 986.115479,113.286919 
	C987.168213,112.417976 988.369141,111.892311 989.771606,111.599152 
	C990.627747,114.593742 991.282349,117.355843 991.922546,120.503754 
	C991.161621,121.590271 990.415161,122.290970 989.380798,123.105522 
z"/>
<path fill="#B5B5B5" opacity="1.000000" stroke="none" 
	d="
M1091.723022,231.025726 
	C1094.382812,231.974838 1096.809570,232.946579 1099.589966,233.959412 
	C1098.516846,235.778839 1097.090088,237.557159 1095.265625,239.103226 
	C1093.570068,236.511002 1092.272461,234.151047 1090.974731,231.791077 
	C1091.013428,231.451080 1091.185181,231.203506 1091.723022,231.025726 
z"/>
<path fill="#777777" opacity="1.000000" stroke="none" 
	d="
M1090.646240,231.790436 
	C1092.272461,234.151047 1093.570068,236.511002 1094.933838,239.247696 
	C1093.579956,239.996719 1092.160034,240.368988 1090.418945,240.670868 
	C1089.739624,237.977463 1089.381348,235.354446 1089.023193,232.325256 
	C1089.454956,231.875961 1089.886353,231.832870 1090.646240,231.790436 
z"/>
<path fill="#8D8D8D" opacity="1.000000" stroke="none" 
	d="
M1487.025391,154.447662 
	C1490.169556,155.032440 1493.236816,156.008942 1496.698242,157.021561 
	C1496.663086,157.781326 1496.234131,158.504990 1495.718384,159.537766 
	C1493.023071,159.211548 1490.414429,158.576233 1487.417480,157.977600 
	C1487.002319,156.955994 1486.975464,155.897690 1487.025391,154.447662 
z"/>
<path fill="#030303" opacity="1.000000" stroke="none" 
	d="
M2018.984131,529.365845 
	C2021.595459,531.739197 2024.305786,534.435974 2027.031738,537.488770 
	C2024.392700,535.126282 2021.738037,532.407837 2018.984131,529.365845 
z"/>
<path fill="#474747" opacity="1.000000" stroke="none" 
	d="
M764.825317,106.994751 
	C764.914551,107.522972 764.770569,108.048164 764.414551,108.749146 
	C764.141052,108.501129 764.079468,108.077316 764.072144,107.334572 
	C764.126282,107.015633 764.592102,106.991722 764.825317,106.994751 
z"/>
<path fill="#474747" opacity="1.000000" stroke="none" 
	d="
M764.083130,44.269436 
	C764.292175,44.196510 764.466431,44.341949 764.596619,44.519676 
	C764.624695,44.557972 764.493591,44.712852 764.276245,44.888313 
	C764.116699,44.962570 764.032593,44.499340 764.083130,44.269436 
z"/>
<path fill="#717171" opacity="1.000000" stroke="none" 
	d="
M256.515137,12.929810 
	C253.491257,33.226109 250.180969,53.501980 246.755020,73.758293 
	C241.862946,102.683487 236.894409,131.595779 231.941833,160.510712 
	C229.620667,174.062469 227.260468,187.607513 224.395416,201.565765 
	C221.217438,201.644989 218.561981,201.314056 215.906555,200.983124 
	C217.315079,191.167603 218.521469,181.317963 220.171036,171.543106 
	C224.637222,145.077774 229.320053,118.649086 233.863586,92.196693 
	C238.548157,64.923233 243.171768,37.639309 247.809570,10.357840 
	C247.948471,9.540682 247.947571,8.699757 248.095398,7.456714 
	C250.844955,8.995892 253.511002,10.948269 256.515137,12.929810 
z"/>
<path fill="#636363" opacity="1.000000" stroke="none" 
	d="
M215.715546,201.346542 
	C218.561981,201.314056 221.217438,201.644989 224.277283,201.963058 
	C224.036148,212.842239 223.497330,223.741959 222.715927,234.624252 
	C221.887299,246.164490 220.853912,257.690460 219.839127,269.216400 
	C219.704208,270.748749 219.152832,272.244446 218.201691,273.619049 
	C215.111633,272.622681 212.614197,271.764343 210.116776,270.906006 
	C210.734344,262.334290 211.303406,253.758728 211.980331,245.191696 
	C213.125839,230.694962 214.339539,216.203583 215.715546,201.346542 
z"/>
<path fill="#B0B0B0" opacity="1.000000" stroke="none" 
	d="
M210.036957,271.250854 
	C212.614197,271.764343 215.111633,272.622681 217.829681,273.761200 
	C216.962372,275.787323 215.874451,277.533234 214.349548,279.038513 
	C212.610062,276.866577 211.307556,274.935242 210.005051,273.003906 
	C209.989075,272.534515 209.973099,272.065125 210.036957,271.250854 
z"/>
<path fill="#8D8D8D" opacity="1.000000" stroke="none" 
	d="
M209.954926,273.334747 
	C211.307556,274.935242 212.610062,276.866577 214.000641,279.163757 
	C212.338898,280.020569 210.589066,280.511536 208.455566,280.495850 
	C208.094238,278.278931 208.116577,276.568634 208.138916,274.858337 
	C208.727554,274.460754 209.316177,274.063171 209.954926,273.334747 
z"/>
<path fill="#474747" opacity="1.000000" stroke="none" 
	d="
M208.121368,274.614868 
	C208.116577,276.568634 208.094238,278.278931 208.101807,280.415619 
	C206.869705,280.317352 205.607712,279.792725 204.345718,279.268097 
	C205.296036,277.547791 206.246368,275.827454 207.529053,274.027405 
	C207.861435,273.947662 208.103836,274.371429 208.121368,274.614868 
z"/>

<path fill="#5A5A5A" opacity="1.000000" stroke="none" 
	d="
M10.364309,11.894533 
	C10.774443,14.688476 10.894710,17.513227 10.894909,20.337986 
	C10.904153,151.631271 10.839928,282.924683 11.075068,414.217529 
	C11.087829,421.342102 9.047246,426.007111 2.548527,429.139343 
	C2.149695,426.043091 2.028466,422.882172 2.028250,419.721252 
	C2.018970,284.244537 2.015604,148.767838 2.067036,13.291151 
	C2.067801,11.276691 2.765687,9.262497 3.523146,7.174018 
	C5.944852,8.708354 7.981642,10.316851 10.364309,11.894533 
z"/>

<path fill="#5A5A5A" opacity="1.000000" stroke="none" 
	d="
M2133.817383,344.984680 
	C2133.760254,310.375000 2133.716064,275.765320 2133.639648,241.155731 
	C2133.607910,226.847076 2133.507080,212.538574 2133.530273,197.790695 
	C2142.899902,194.162888 2142.908691,194.162888 2142.901123,204.452835 
	C2142.866699,251.729111 2142.826904,299.005371 2142.264648,346.716461 
	C2139.099365,346.429077 2136.458252,345.706879 2133.817383,344.984680 
z"/>
<path fill="#575757" opacity="1.000000" stroke="none" 
	d="
M2090.141357,348.190247 
	C2103.773438,347.879059 2117.392822,347.948486 2131.478027,348.494965 
	C2132.359619,351.493225 2132.775391,354.014465 2133.191406,356.535706 
	C2117.899658,357.059662 2102.612793,357.405273 2086.417725,356.228790 
	C2088.029297,352.902832 2089.079102,350.736847 2090.141357,348.190247 
z"/>
<path fill="#8D8D8D" opacity="1.000000" stroke="none" 
	d="
M2133.535156,356.561249 
	C2132.775391,354.014465 2132.359619,351.493225 2131.936035,348.575409 
	C2132.439697,347.296967 2132.951416,346.415100 2133.640137,345.258972 
	C2136.458252,345.706879 2139.099365,346.429077 2142.109619,347.173492 
	C2142.134277,352.635437 2139.453857,355.936005 2133.535156,356.561249 
z"/>

<path fill="#575757" opacity="1.000000" stroke="none" 
	d="
M1638.042847,344.961426 
	C1638.005615,295.931702 1637.968384,246.901932 1638.021973,197.407516 
	C1640.752563,195.704239 1643.392334,194.465622 1646.739990,192.894897 
	C1647.189941,195.184906 1647.864502,197.022934 1647.866699,198.861755 
	C1647.924072,247.713409 1647.912598,296.565155 1647.904663,345.416870 
	C1647.904541,345.742584 1647.789062,346.068298 1647.035645,346.763458 
	C1643.576904,346.409088 1640.809814,345.685272 1638.042847,344.961426 
z"/>
<path fill="#575757" opacity="1.000000" stroke="none" 
	d="
M1596.100830,346.379822 
	C1609.333130,346.012329 1622.672974,346.013123 1636.318115,346.424072 
	C1636.784912,349.761200 1636.946289,352.688110 1637.107666,355.615051 
	C1623.692505,355.705597 1610.277344,355.837830 1596.862061,355.861237 
	C1592.829224,355.868256 1592.456421,353.798126 1594.279419,350.689423 
	C1595.017334,349.431305 1595.570923,348.065125 1596.100830,346.379822 
z"/>
<path fill="#B0B0B0" opacity="1.000000" stroke="none" 
	d="
M1637.970215,345.128052 
	C1640.809814,345.685272 1643.576904,346.409088 1646.750244,347.065155 
	C1646.817749,350.618286 1645.373535,353.471283 1641.359375,354.479492 
	C1639.979858,351.322296 1638.977051,348.486145 1637.974121,345.650024 
	C1637.974121,345.650024 1637.897705,345.294647 1637.970215,345.128052 
z"/>
<path fill="#777777" opacity="1.000000" stroke="none" 
	d="
M1637.727539,345.808777 
	C1638.977051,348.486145 1639.979858,351.322296 1641.015503,354.518280 
	C1639.961426,355.168243 1638.874512,355.458313 1637.447754,355.681732 
	C1636.946289,352.688110 1636.784912,349.761200 1636.776611,346.501648 
	C1637.113403,346.101898 1637.296997,346.034760 1637.727539,345.808777 
z"/>

<path fill="#595959" opacity="1.000000" stroke="none" 
	d="
M1093.285645,351.887634 
	C1093.199463,333.876251 1093.113403,315.864838 1093.096924,297.383667 
	C1095.807495,296.143585 1098.448364,295.373260 1101.884033,294.371124 
	C1104.088745,304.098816 1102.588379,314.010986 1102.843872,323.792542 
	C1103.100220,333.613495 1102.833130,343.448059 1102.318604,353.683472 
	C1098.989746,353.356049 1096.137573,352.621826 1093.285645,351.887634 
z"/>
<path fill="#595959" opacity="1.000000" stroke="none" 
	d="
M1044.294922,355.015900 
	C1059.944946,354.685638 1075.516235,354.742157 1091.529907,355.322205 
	C1092.376221,358.406464 1092.780396,360.967133 1093.184570,363.527832 
	C1075.880859,364.119019 1058.590576,364.221375 1040.287354,363.428406 
	C1042.080933,359.764740 1043.148682,357.583740 1044.294922,355.015900 
z"/>
<path fill="#8D8D8D" opacity="1.000000" stroke="none" 
	d="
M1093.528809,363.556671 
	C1092.780396,360.967133 1092.376221,358.406464 1091.986816,355.439880 
	C1092.361572,354.207001 1092.721802,353.379974 1093.183838,352.220276 
	C1096.137573,352.621826 1098.989746,353.356049 1102.164185,354.140411 
	C1102.128174,359.626007 1099.460327,362.944031 1093.528809,363.556671 
z"/>

<path fill="#777777" opacity="1.000000" stroke="none" 
	d="
M561.731445,247.694214 
	C574.968445,245.775330 588.212830,243.904236 601.432373,241.871796 
	C602.936707,241.640503 604.301819,240.503403 606.232056,239.407394 
	C609.346252,239.394394 611.959961,239.760315 614.573608,240.126251 
	C614.292603,247.540253 612.042725,250.111984 603.097229,251.485687 
	C590.100403,253.481537 577.032776,255.016266 563.536987,256.285492 
	C562.629578,253.113632 562.180481,250.403915 561.731445,247.694214 
z"/>
<path fill="#595959" opacity="1.000000" stroke="none" 
	d="
M614.695740,239.661316 
	C611.959961,239.760315 609.346252,239.394394 606.326904,239.026917 
	C605.832764,225.559845 605.750793,212.094254 605.648132,198.628830 
	C605.634216,196.801193 605.516663,194.974335 605.562378,192.706635 
	C608.116760,191.303253 610.555908,190.340347 614.157288,188.918594 
	C615.720520,205.975952 614.609558,222.609818 614.695740,239.661316 
z"/>
<path fill="#474747" opacity="1.000000" stroke="none" 
	d="
M561.374268,247.680191 
	C562.180481,250.403915 562.629578,253.113632 563.130432,256.239319 
	C560.277832,256.655334 557.373413,256.655334 553.073364,256.655334 
	C555.431458,252.808945 556.751770,250.655396 558.119751,248.135315 
	C559.117371,247.734573 560.067322,247.700378 561.374268,247.680191 
z"/>

<path fill="#777777" opacity="1.000000" stroke="none" 
	d="
M2385.731934,247.694031 
	C2398.968750,245.775192 2412.213135,243.904175 2425.432617,241.871780 
	C2426.936768,241.640503 2428.302002,240.503448 2430.231934,239.407440 
	C2433.346191,239.394348 2435.959717,239.760223 2438.573486,240.126099 
	C2438.292236,247.540634 2436.042969,250.111908 2427.097168,251.485611 
	C2414.100342,253.481445 2401.032471,255.016312 2387.536621,256.285522 
	C2386.629639,253.113541 2386.180664,250.403793 2385.731934,247.694031 
z"/>
<path fill="#595959" opacity="1.000000" stroke="none" 
	d="
M2438.695801,239.661255 
	C2435.959717,239.760223 2433.346191,239.394348 2430.326660,239.026978 
	C2429.832520,225.559952 2429.750732,212.094391 2429.647949,198.628998 
	C2429.634033,196.801361 2429.516602,194.974533 2429.562500,192.706955 
	C2432.117188,191.303558 2434.556152,190.340546 2438.157715,188.918533 
	C2439.719238,205.976181 2438.609131,222.609955 2438.695801,239.661255 
z"/>
<path fill="#474747" opacity="1.000000" stroke="none" 
	d="
M2385.374756,247.680084 
	C2386.180664,250.403793 2386.629639,253.113541 2387.130371,256.239319 
	C2384.284912,256.655334 2381.388184,256.655334 2377.072510,256.655334 
	C2379.431396,252.808624 2380.751709,250.655243 2382.119873,248.135315 
	C2383.117432,247.734558 2384.067627,247.700348 2385.374756,247.680084 
z"/>
</svg>