<svg version="1.1" id="Layer_1" xmlns="http://www.w3.org/2000/svg" xmlns:xlink="http://www.w3.org/1999/xlink" x="0px" y="0px"
	 width="100%" viewBox="0 0 512 512" enable-background="new 0 0 512 512" xml:space="preserve">
<path opacity="1.000000" stroke="none" 
	d="
M344.000000,513.000000 
	C229.361191,513.000000 115.222374,513.000000 1.041779,513.000000 
	C1.041779,342.402832 1.041779,171.805649 1.041779,1.104233 
	C171.555481,1.104233 342.111053,1.104233 512.833313,1.104233 
	C512.833313,171.666534 512.833313,342.333252 512.833313,513.000000 
	C456.805573,513.000000 400.652802,513.000000 344.000000,513.000000 
M194.099182,368.616638 
	C196.418030,358.133575 199.059448,347.709442 200.987793,337.155029 
	C204.868347,315.915649 208.209778,294.578033 212.055283,273.331879 
	C215.873810,252.234772 219.858292,231.163284 224.175766,210.163971 
	C225.275650,204.814377 227.913498,199.780991 229.844727,194.602325 
	C230.422333,194.674988 230.999939,194.747650 231.577560,194.820328 
	C232.393875,196.147446 233.602707,197.376389 233.963135,198.817535 
	C236.406219,208.586090 239.325150,218.299393 240.841232,228.221390 
	C243.223633,243.812943 244.651932,259.551514 246.413986,275.235718 
	C246.824066,278.886017 246.932312,282.569550 247.213501,286.235199 
	C247.631027,291.677704 247.874863,297.143829 248.563004,302.552765 
	C249.530960,310.161163 250.990219,317.707031 251.956711,325.315552 
	C252.888031,332.647003 253.353653,340.036621 254.216110,347.378082 
	C255.381195,357.295563 256.749908,367.188904 257.993988,377.097321 
	C259.096497,385.877838 259.773529,394.730682 261.305634,403.434143 
	C263.932404,418.355713 266.362457,433.376526 270.250458,447.989716 
	C273.023346,458.411713 277.008820,468.838287 282.403137,478.130920 
	C286.633057,485.417664 294.169067,486.817352 300.150543,479.121552 
	C303.080933,475.351257 305.603027,470.842987 306.853912,466.270416 
	C310.027740,454.668671 312.704041,442.904846 314.988129,431.091522 
	C318.889465,410.914215 322.597443,390.691742 325.911652,370.410614 
	C330.013885,345.307129 333.444611,320.079315 341.062744,295.707001 
	C342.680359,290.531738 344.235016,285.102722 350.508820,280.878632 
	C354.141510,289.772888 358.421661,297.782715 360.708221,306.326111 
	C366.901276,329.465485 371.713348,352.982300 378.219696,376.025696 
	C380.500610,384.103912 385.431396,391.736481 390.423096,398.655670 
	C394.792938,404.712860 400.520081,405.135529 406.186371,400.181213 
	C410.568451,396.349731 414.132385,391.223511 416.982788,386.076324 
	C422.428619,376.242310 426.788849,365.807220 432.232178,355.971649 
	C435.138000,350.721161 440.270447,347.464722 446.607788,348.168854 
	C453.075836,348.887390 459.511230,350.145874 465.865112,351.589600 
	C475.742493,353.833832 479.856995,351.586090 481.547516,341.817871 
	C481.988129,339.271881 481.202209,336.350586 480.405090,333.779816 
	C475.080139,316.606049 469.410370,299.537354 464.241180,282.317871 
	C461.187500,272.145447 458.432068,261.988831 451.540405,253.494614 
	C447.757050,248.831528 443.292480,247.292953 439.788086,250.819321 
	C435.575562,255.058350 431.464355,259.564026 428.188751,264.533936 
	C421.235413,275.083923 414.909454,286.045837 408.162537,296.735535 
	C407.305389,298.093628 405.549774,299.407104 404.050690,299.620758 
	C403.282074,299.730316 401.811951,297.499603 401.256683,296.090851 
	C398.429138,288.917542 395.539246,281.751587 393.141357,274.429108 
	C383.000397,243.461609 373.355804,212.326035 362.750702,181.520081 
	C360.218597,174.164780 355.360138,167.288132 350.351044,161.194748 
	C344.913177,154.579742 337.395508,155.422043 333.216949,162.767639 
	C329.797882,168.778198 326.772430,175.315536 325.175690,182.002197 
	C320.675385,200.848007 317.115479,219.916138 312.967560,238.849014 
	C309.132172,256.355530 305.084869,273.816833 300.950043,291.255188 
	C300.312744,293.942993 298.704437,296.400604 296.874725,300.447693 
	C294.542175,296.753784 292.611145,294.656464 291.777283,292.188446 
	C289.595978,285.732330 287.371796,279.212769 286.113007,272.539612 
	C283.703949,259.768341 281.859833,246.886734 279.958221,234.024765 
	C278.498199,224.149475 277.205902,214.246338 276.029816,204.332947 
	C274.869507,194.552719 274.060120,184.730820 272.895782,174.951126 
	C271.366791,162.108398 269.631439,149.290298 268.002930,136.459320 
	C266.620880,125.570282 265.583527,114.625931 263.817474,103.800049 
	C261.508331,89.644737 258.916656,75.520699 255.900467,61.500690 
	C253.855804,51.996536 251.888641,42.327904 246.032928,34.130051 
	C242.223953,28.797567 235.748245,28.410244 231.817123,33.658535 
	C229.502670,36.748489 227.354523,40.175903 226.061401,43.784725 
	C214.430878,76.243050 209.127487,110.306458 201.079895,143.673492 
	C194.858978,169.466782 189.372772,195.436539 183.282745,221.262482 
	C180.630142,232.511414 177.150467,243.562927 174.304214,254.769562 
	C172.710983,261.042603 171.645218,267.449615 170.341797,273.796295 
	C166.653870,265.835480 163.581741,258.102905 161.143829,250.175339 
	C156.889526,236.341339 153.277222,222.307953 148.926544,208.506073 
	C144.674301,195.016434 139.431000,181.913223 128.546448,172.102112 
	C123.957718,167.965912 118.594101,164.901871 112.567062,168.407181 
	C109.551834,170.160812 106.559891,173.354141 105.345894,176.571213 
	C98.917107,193.607437 93.127434,210.883545 86.972260,228.024796 
	C83.329178,238.170227 79.560844,248.276520 75.553322,258.282043 
	C74.156113,261.770416 71.281059,261.722961 69.365196,258.492554 
	C68.103241,256.364777 67.117523,254.075333 65.930733,251.900497 
	C61.170773,243.177719 56.307724,234.445038 47.007317,229.715897 
	C45.006229,228.698349 41.200405,228.147629 39.980953,229.276947 
	C36.837456,232.188110 32.724670,236.041580 32.500469,239.731369 
	C31.903065,249.562927 31.422998,259.988678 34.026680,269.303162 
	C39.149078,287.628143 45.800621,305.602386 53.019211,323.230530 
	C56.354382,331.375183 62.010349,338.757416 67.524521,345.769379 
	C73.092102,352.849243 84.503708,353.789307 89.629181,345.755585 
	C94.066269,338.800903 98.947617,331.855560 101.799583,324.221344 
	C107.529831,308.882385 111.988495,293.069519 117.022873,277.468658 
	C118.155624,273.958405 119.497429,270.515625 121.235352,265.668610 
	C122.591278,268.625000 123.503746,270.121338 123.985664,271.745453 
	C127.054070,282.086273 129.948517,292.478943 133.048935,302.809967 
	C139.311096,323.676422 145.428452,344.591461 152.094666,365.329224 
	C155.092804,374.656006 159.095184,383.711456 166.319550,390.799835 
	C171.606934,395.987671 177.254074,395.892395 182.663986,390.868988 
	C188.964111,385.018951 191.340225,377.166077 194.099182,368.616638 
z"/>
<path fill="#CC9900" opacity="1.000000" stroke="none" 
	d="
M194.051483,369.024170 
	C191.340225,377.166077 188.964111,385.018951 182.663986,390.868988 
	C177.254074,395.892395 171.606934,395.987671 166.319550,390.799835 
	C159.095184,383.711456 155.092804,374.656006 152.094666,365.329224 
	C145.428452,344.591461 139.311096,323.676422 133.048935,302.809967 
	C129.948517,292.478943 127.054070,282.086273 123.985664,271.745453 
	C123.503746,270.121338 122.591278,268.625000 121.235352,265.668610 
	C119.497429,270.515625 118.155624,273.958405 117.022873,277.468658 
	C111.988495,293.069519 107.529831,308.882385 101.799583,324.221344 
	C98.947617,331.855560 94.066269,338.800903 89.629181,345.755585 
	C84.503708,353.789307 73.092102,352.849243 67.524521,345.769379 
	C62.010349,338.757416 56.354382,331.375183 53.019211,323.230530 
	C45.800621,305.602386 39.149078,287.628143 34.026680,269.303162 
	C31.422998,259.988678 31.903065,249.562927 32.500469,239.731369 
	C32.724670,236.041580 36.837456,232.188110 39.980953,229.276947 
	C41.200405,228.147629 45.006229,228.698349 47.007317,229.715897 
	C56.307724,234.445038 61.170773,243.177719 65.930733,251.900497 
	C67.117523,254.075333 68.103241,256.364777 69.365196,258.492554 
	C71.281059,261.722961 74.156113,261.770416 75.553322,258.282043 
	C79.560844,248.276520 83.329178,238.170227 86.972260,228.024796 
	C93.127434,210.883545 98.917107,193.607437 105.345894,176.571213 
	C106.559891,173.354141 109.551834,170.160812 112.567062,168.407181 
	C118.594101,164.901871 123.957718,167.965912 128.546448,172.102112 
	C139.431000,181.913223 144.674301,195.016434 148.926544,208.506073 
	C153.277222,222.307953 156.889526,236.341339 161.143829,250.175339 
	C163.581741,258.102905 166.653870,265.835480 170.341797,273.796295 
	C171.645218,267.449615 172.710983,261.042603 174.304214,254.769562 
	C177.150467,243.562927 180.630142,232.511414 183.282745,221.262482 
	C189.372772,195.436539 194.858978,169.466782 201.079895,143.673492 
	C209.127487,110.306458 214.430878,76.243050 226.061401,43.784725 
	C227.354523,40.175903 229.502670,36.748489 231.817123,33.658535 
	C235.748245,28.410244 242.223953,28.797567 246.032928,34.130051 
	C251.888641,42.327904 253.855804,51.996536 255.900467,61.500690 
	C258.916656,75.520699 261.508331,89.644737 263.817474,103.800049 
	C265.583527,114.625931 266.620880,125.570282 268.002930,136.459320 
	C269.631439,149.290298 271.366791,162.108398 272.895782,174.951126 
	C274.060120,184.730820 274.869507,194.552719 276.029816,204.332947 
	C277.205902,214.246338 278.498199,224.149475 279.958221,234.024765 
	C281.859833,246.886734 283.703949,259.768341 286.113007,272.539612 
	C287.371796,279.212769 289.595978,285.732330 291.777283,292.188446 
	C292.611145,294.656464 294.542175,296.753784 296.874725,300.447693 
	C298.704437,296.400604 300.312744,293.942993 300.950043,291.255188 
	C305.084869,273.816833 309.132172,256.355530 312.967560,238.849014 
	C317.115479,219.916138 320.675385,200.848007 325.175690,182.002197 
	C326.772430,175.315536 329.797882,168.778198 333.216949,162.767639 
	C337.395508,155.422043 344.913177,154.579742 350.351044,161.194748 
	C355.360138,167.288132 360.218597,174.164780 362.750702,181.520081 
	C373.355804,212.326035 383.000397,243.461609 393.141357,274.429108 
	C395.539246,281.751587 398.429138,288.917542 401.256683,296.090851 
	C401.811951,297.499603 403.282074,299.730316 404.050690,299.620758 
	C405.549774,299.407104 407.305389,298.093628 408.162537,296.735535 
	C414.909454,286.045837 421.235413,275.083923 428.188751,264.533936 
	C431.464355,259.564026 435.575562,255.058350 439.788086,250.819321 
	C443.292480,247.292953 447.757050,248.831528 451.540405,253.494614 
	C458.432068,261.988831 461.187500,272.145447 464.241180,282.317871 
	C469.410370,299.537354 475.080139,316.606049 480.405090,333.779816 
	C481.202209,336.350586 481.988129,339.271881 481.547516,341.817871 
	C479.856995,351.586090 475.742493,353.833832 465.865112,351.589600 
	C459.511230,350.145874 453.075836,348.887390 446.607788,348.168854 
	C440.270447,347.464722 435.138000,350.721161 432.232178,355.971649 
	C426.788849,365.807220 422.428619,376.242310 416.982788,386.076324 
	C414.132385,391.223511 410.568451,396.349731 406.186371,400.181213 
	C400.520081,405.135529 394.792938,404.712860 390.423096,398.655670 
	C385.431396,391.736481 380.500610,384.103912 378.219696,376.025696 
	C371.713348,352.982300 366.901276,329.465485 360.708221,306.326111 
	C358.421661,297.782715 354.141510,289.772888 350.508820,280.878632 
	C344.235016,285.102722 342.680359,290.531738 341.062744,295.707001 
	C333.444611,320.079315 330.013885,345.307129 325.911652,370.410614 
	C322.597443,390.691742 318.889465,410.914215 314.988129,431.091522 
	C312.704041,442.904846 310.027740,454.668671 306.853912,466.270416 
	C305.603027,470.842987 303.080933,475.351257 300.150543,479.121552 
	C294.169067,486.817352 286.633057,485.417664 282.403137,478.130920 
	C277.008820,468.838287 273.023346,458.411713 270.250458,447.989716 
	C266.362457,433.376526 263.932404,418.355713 261.305634,403.434143 
	C259.773529,394.730682 259.096497,385.877838 257.993988,377.097321 
	C256.749908,367.188904 255.381195,357.295563 254.216110,347.378082 
	C253.353653,340.036621 252.888031,332.647003 251.956711,325.315552 
	C250.990219,317.707031 249.530960,310.161163 248.563004,302.552765 
	C247.874863,297.143829 247.631027,291.677704 247.213501,286.235199 
	C246.932312,282.569550 246.824066,278.886017 246.413986,275.235718 
	C244.651932,259.551514 243.223633,243.812943 240.841232,228.221390 
	C239.325150,218.299393 236.406219,208.586090 233.963135,198.817535 
	C233.602707,197.376389 232.393875,196.147446 231.577560,194.820328 
	C230.999939,194.747650 230.422333,194.674988 229.844727,194.602325 
	C227.913498,199.780991 225.275650,204.814377 224.175766,210.163971 
	C219.858292,231.163284 215.873810,252.234772 212.055283,273.331879 
	C208.209778,294.578033 204.868347,315.915649 200.987793,337.155029 
	C199.059448,347.709442 196.418030,358.133575 194.051483,369.024170 
z"/>
</svg>